<svg width="21" height="27" viewBox="0 0 21 27" fill="none" xmlns="http://www.w3.org/2000/svg">
<g clip-path="url(#clip0_901_385)">
<path d="M11.4546 25.7727H4.77277C2.66405 25.7727 0.95459 24.3262 0.95459 22.5419V8.00347C0.95459 6.21917 2.66405 4.77271 4.77277 4.77271H14.3182C16.4269 4.77271 18.1364 6.21917 18.1364 8.00347V15.6766" stroke="white" stroke-width="1.5" stroke-linecap="round"/>
<path d="M4.77295 10.5H14.3184" stroke="white" stroke-width="1.5" stroke-linecap="round"/>
<path d="M4.77295 15.2727H7.63659" stroke="white" stroke-width="1.5" stroke-linecap="round"/>
<path d="M16.2271 21.9545L19.6018 25.3293" stroke="white" stroke-width="1.5" stroke-linecap="round"/>
<path d="M13.3636 22.9091C15.4723 22.9091 17.1818 21.1996 17.1818 19.0909C17.1818 16.9822 15.4723 15.2727 13.3636 15.2727C11.2549 15.2727 9.54541 16.9822 9.54541 19.0909C9.54541 21.1996 11.2549 22.9091 13.3636 22.9091Z" stroke="white" stroke-width="1.5"/>
</g>
<defs>
<clipPath id="clip0_901_385">
<rect width="21" height="26.7273" fill="white"/>
</clipPath>
</defs>
</svg>
