<svg width="24" height="24" viewBox="0 0 20 20" fill="none" xmlns="http://www.w3.org/2000/svg">
<path d="M14.9999 6.66683H14.1666V5.00016C14.1666 2.70016 12.2999 0.833496 9.99992 0.833496C7.69992 0.833496 5.83325 2.70016 5.83325 5.00016V6.66683H4.99992C4.08325 6.66683 3.33325 7.41683 3.33325 8.3335V16.6668C3.33325 17.5835 4.08325 18.3335 4.99992 18.3335H14.9999C15.9166 18.3335 16.6666 17.5835 16.6666 16.6668V8.3335C16.6666 7.41683 15.9166 6.66683 14.9999 6.66683ZM9.99992 14.1668C9.08325 14.1668 8.33325 13.4168 8.33325 12.5002C8.33325 11.5835 9.08325 10.8335 9.99992 10.8335C10.9166 10.8335 11.6666 11.5835 11.6666 12.5002C11.6666 13.4168 10.9166 14.1668 9.99992 14.1668ZM7.49992 6.66683V5.00016C7.49992 3.61683 8.61659 2.50016 9.99992 2.50016C11.3833 2.50016 12.4999 3.61683 12.4999 5.00016V6.66683H7.49992Z" fill="#3A98DC"/>
</svg>
