<svg width="28" height="28" viewBox="0 0 28 28" fill="none" xmlns="http://www.w3.org/2000/svg">
<path d="M5.8335 6.99998C5.8335 6.69056 5.95641 6.39381 6.17521 6.17502C6.394 5.95623 6.69074 5.83331 7.00016 5.83331H21.0002C21.3096 5.83331 21.6063 5.95623 21.8251 6.17502C22.0439 6.39381 22.1668 6.69056 22.1668 6.99998V21C22.1668 21.3094 22.0439 21.6061 21.8251 21.8249C21.6063 22.0437 21.3096 22.1666 21.0002 22.1666H7.00016C6.69074 22.1666 6.394 22.0437 6.17521 21.8249C5.95641 21.6061 5.8335 21.3094 5.8335 21V6.99998Z" stroke="#F8F8F8" stroke-width="2" stroke-linecap="round" stroke-linejoin="round"/>
<path d="M3.5 11.6667H5.83333M3.5 16.3333H5.83333M11.6667 3.5V5.83333M16.3333 3.5V5.83333M24.5 11.6667H22.1667M24.5 16.3333H22.1667M16.3333 24.5V22.1667M11.6667 24.5V22.1667M10.5 10.5H17.5V17.5H10.5V10.5Z" stroke="#F8F8F8" stroke-width="2" stroke-linecap="round" stroke-linejoin="round"/>
</svg>
