<svg width="20" height="24" viewBox="0 0 20 24" fill="none" xmlns="http://www.w3.org/2000/svg">
<path fill-rule="evenodd" clip-rule="evenodd" d="M1.07609 0.909443C1.43163 0.553905 1.91384 0.354166 2.41665 0.354166H17.5833C18.0861 0.354166 18.5683 0.553904 18.9239 0.909443C19.2794 1.26498 19.4791 1.74719 19.4791 2.25V21.75C19.4791 22.2528 19.2794 22.735 18.9239 23.0906C18.5683 23.4461 18.0861 23.6458 17.5833 23.6458H2.41665C1.91384 23.6458 1.43163 23.4461 1.07609 23.0906C0.720552 22.735 0.520813 22.2528 0.520813 21.75V2.25C0.520813 1.74719 0.720553 1.26498 1.07609 0.909443ZM2.41665 1.97917C2.34482 1.97917 2.27593 2.0077 2.22514 2.05849C2.17435 2.10928 2.14581 2.17817 2.14581 2.25V21.75C2.14581 21.8218 2.17435 21.8907 2.22514 21.9415C2.27593 21.9923 2.34482 22.0208 2.41665 22.0208H17.5833C17.6551 22.0208 17.724 21.9923 17.7748 21.9415C17.8256 21.8907 17.8541 21.8218 17.8541 21.75V2.25C17.8541 2.17817 17.8256 2.10928 17.7748 2.05849C17.724 2.0077 17.6551 1.97917 17.5833 1.97917H2.41665ZM5.39581 15.25C5.39581 14.8013 5.75958 14.4375 6.20831 14.4375H13.7916C14.2404 14.4375 14.6041 14.8013 14.6041 15.25C14.6041 15.6987 14.2404 16.0625 13.7916 16.0625H6.20831C5.75958 16.0625 5.39581 15.6987 5.39581 15.25ZM5.39581 18.5C5.39581 18.0513 5.75958 17.6875 6.20831 17.6875H9.99998C10.4487 17.6875 10.8125 18.0513 10.8125 18.5C10.8125 18.9487 10.4487 19.3125 9.99998 19.3125H6.20831C5.75958 19.3125 5.39581 18.9487 5.39581 18.5Z" fill="white"/>
<path fill-rule="evenodd" clip-rule="evenodd" d="M13.8245 5.46714C14.1418 5.78444 14.1418 6.29889 13.8245 6.61619L9.49119 10.9495C9.17389 11.2668 8.65944 11.2668 8.34214 10.9495L6.17548 8.78286C5.85817 8.46556 5.85817 7.95111 6.17548 7.63381C6.49278 7.31651 7.00722 7.31651 7.32452 7.63381L8.91667 9.22595L12.6755 5.46714C12.9928 5.14984 13.5072 5.14984 13.8245 5.46714Z" fill="white"/>
</svg>
