<svg width="12" height="11" viewBox="0 0 12 11" fill="none" xmlns="http://www.w3.org/2000/svg">
<path d="M1.69293 10.1148L5.92997 5.86791L10.167 10.1148C10.2588 10.2074 10.3681 10.2809 10.4884 10.331C10.6088 10.3812 10.7379 10.407 10.8682 10.407C10.9986 10.407 11.1277 10.3812 11.2481 10.331C11.3684 10.2809 11.4777 10.2074 11.5695 10.1148C11.662 10.023 11.7355 9.91377 11.7857 9.79341C11.8358 9.67306 11.8616 9.54397 11.8616 9.41359C11.8616 9.2832 11.8358 9.15411 11.7857 9.03376C11.7355 8.9134 11.662 8.80417 11.5695 8.71235L6.6312 3.77408C6.53939 3.68151 6.43015 3.60803 6.3098 3.55789C6.18944 3.50775 6.06035 3.48193 5.92997 3.48193C5.79958 3.48193 5.67049 3.50775 5.55014 3.55789C5.42978 3.60803 5.32055 3.68151 5.22873 3.77408L0.290461 8.71235C0.198373 8.80444 0.125326 8.91376 0.0754886 9.03408C0.0256513 9.1544 0 9.28335 0 9.41359C0 9.6766 0.104482 9.92884 0.290461 10.1148C0.47644 10.3008 0.728681 10.4053 0.991695 10.4053C1.25471 10.4053 1.50695 10.3008 1.69293 10.1148Z" fill="black"/>
<line y1="1.25" x2="12" y2="1.25" stroke="black" stroke-width="1.5"/>
</svg>
