<svg width="26" height="26" viewBox="0 0 26 26" fill="none" xmlns="http://www.w3.org/2000/svg">
<path d="M14.0834 20.5833C14.0834 16.9975 16.9976 14.0833 20.5834 14.0833C21.7751 14.0833 22.8801 14.4083 23.8334 14.9608V6.49998C23.8334 5.92534 23.6051 5.37424 23.1988 4.96791C22.7925 4.56159 22.2414 4.33331 21.6667 4.33331H4.33341C3.13091 4.33331 2.16675 5.29748 2.16675 6.49998V19.5C2.16675 20.0746 2.39502 20.6257 2.80135 21.032C3.20768 21.4384 3.75878 21.6666 4.33341 21.6666H14.1809C14.1267 21.3091 14.0834 20.9516 14.0834 20.5833ZM4.33341 8.66665V6.49998L13.0001 11.9166L21.6667 6.49998V8.66665L13.0001 14.0833L4.33341 8.66665ZM21.6667 23.8333V21.6666H17.3334V19.5H21.6667V17.3333L24.9167 20.5833L21.6667 23.8333Z" fill="white"/>
</svg>
