<svg width="26" height="26" viewBox="0 0 26 26" fill="none" xmlns="http://www.w3.org/2000/svg">
<path fill-rule="evenodd" clip-rule="evenodd" d="M6.31962 3.40437C7.47304 2.63379 8.76694 2.09793 10.1274 1.8274C11.4879 1.55687 12.8884 1.55696 14.2489 1.82767C15.6094 2.09838 16.9032 2.6344 18.0565 3.40513C19.2098 4.17585 20.2 5.1662 20.9706 6.31962C21.7412 7.47303 22.2771 8.76693 22.5476 10.1274C22.8181 11.4879 22.818 12.8884 22.5473 14.2489C22.2766 15.6094 21.7406 16.9032 20.9699 18.0565C20.1991 19.2098 19.2088 20.2 18.0554 20.9706C15.7257 22.5267 12.8734 23.0935 10.1258 22.5465C7.37817 21.9995 4.96041 20.3834 3.40437 18.0537C1.84833 15.7241 1.28147 12.8717 1.82849 10.1241C2.37551 7.37654 3.9916 4.95878 6.32124 3.40274L6.31962 3.40437ZM7.22149 19.6186C8.69141 20.6008 10.4196 21.1251 12.1875 21.125C14.5571 21.1224 16.8289 20.18 18.5044 18.5044C20.18 16.8289 21.1224 14.5571 21.125 12.1875C21.125 10.6435 20.7249 9.12578 19.9638 7.78235C19.2028 6.43893 18.1066 5.31558 16.7823 4.52179C15.4579 3.72801 13.9505 3.29086 12.4069 3.25295C10.8634 3.21504 9.33632 3.57766 7.97459 4.30547C6.61285 5.03329 5.4629 6.10147 4.6368 7.40592C3.8107 8.71036 3.33663 10.2066 3.26078 11.7487C3.18494 13.2909 3.50992 14.8264 4.20404 16.2056C4.89816 17.5848 5.93775 18.7607 7.22149 19.6186ZM16.7277 6.49999L17.875 7.64887L14.3812 11.1426C14.6334 11.6661 14.6921 12.262 14.547 12.8246C14.4019 13.3873 14.0624 13.8804 13.5885 14.2167C13.1146 14.553 12.537 14.7106 11.958 14.6618C11.379 14.613 10.8359 14.3608 10.4251 13.9499C10.0142 13.539 9.762 12.996 9.71318 12.417C9.66435 11.838 9.82203 11.2604 10.1583 10.7865C10.4946 10.3126 10.9877 9.97306 11.5504 9.82795C12.113 9.68285 12.7089 9.74158 13.2324 9.99374L16.7261 6.49999H16.7277ZM11.7341 12.8635C11.9134 12.9833 12.1329 13.027 12.3444 12.9849C12.5559 12.9429 12.7421 12.8185 12.8619 12.6392C12.9817 12.46 13.0254 12.2404 12.9833 12.0289C12.9413 11.8174 12.8169 11.6313 12.6376 11.5115C12.5488 11.4522 12.4493 11.4109 12.3445 11.3901C12.2398 11.3692 12.132 11.3692 12.0273 11.3901C11.8158 11.4321 11.6297 11.5565 11.5099 11.7357C11.3901 11.915 11.3464 12.1346 11.3884 12.3461C11.4305 12.5576 11.5548 12.7437 11.7341 12.8635ZM18.6989 8.88387L17.459 10.1237C17.7287 10.7786 17.8701 11.479 17.8734 12.1875C17.8688 13.2058 17.588 14.2038 17.0609 15.0751L18.2552 16.2695C18.9833 15.1908 19.4086 13.9365 19.4869 12.6375C19.5652 11.3385 19.2936 10.0422 18.7005 8.88387H18.6989ZM14.1911 6.89324C13.5538 6.63782 12.8741 6.50442 12.1875 6.49999C10.6791 6.49999 9.23244 7.09921 8.16583 8.16582C7.09921 9.23243 6.49999 10.6791 6.49999 12.1875C6.50432 13.2059 6.78515 14.2039 7.31249 15.0751L6.11974 16.2695C5.22218 14.9309 4.79199 13.3332 4.89607 11.7249C5.00014 10.1166 5.63264 8.58766 6.69525 7.37587C7.75785 6.16409 9.19103 5.3373 10.772 5.02404C12.3529 4.71078 13.9931 4.92859 15.4375 5.64362L14.1911 6.89324Z" fill="white"/>
</svg>
