<svg width="143" height="63" viewBox="0 0 143 63" fill="none" xmlns="http://www.w3.org/2000/svg">
<g clip-path="url(#clip0_312_1060)">
<path d="M49.4883 63C49.4883 63 50.9933 60.3031 55.4032 58.6071C59.8131 56.9111 64.8241 56.8106 68.7338 56.8106C72.6434 56.8106 119.349 56.8106 119.349 56.8106C119.349 56.8106 129.371 57.3089 133.079 52.8155C136.787 48.3221 137.089 44.2307 137.089 44.2307L143 0C143 0 140.843 2.24462 134.079 3.14497C127.315 4.04533 114.434 4.79075 71.7395 4.79075C71.7395 4.79075 65.5892 4.58974 61.9066 6.68778C58.224 8.78583 57.7742 14.4769 57.7742 14.4769L49.4883 63Z" fill="#FF0000"/>
<path d="M20.8892 42.3127L13.9654 33.82L24.0295 21.4746H18.5308C16.0673 21.4746 14.3816 22.22 12.885 23.9705L7.58384 30.4657V19.4059V12.6176H2.2617C1.01314 12.6176 0 13.631 0 14.879V19.4017V42.3085V48.1797H5.32214C6.5707 48.1797 7.58384 47.1663 7.58384 45.9183V42.3085V37.0613L11.8928 42.3295L15.5586 46.8229C16.2985 47.7484 17.2696 48.1755 18.2702 48.1755H25.6943L20.8892 42.3127Z" fill="white"/>
<path d="M34.5392 48.1797C30.4362 48.1797 27.6069 45.3656 27.6069 41.2783V14.8748C27.6069 13.631 28.6243 12.6176 29.877 12.6176H35.1992V39.8629C35.1992 40.9852 36.1114 41.8939 37.2339 41.8939H42.6485V45.9183C42.6485 47.1663 41.6312 48.1797 40.3784 48.1797H34.5392Z" fill="white"/>
<path d="M8.36572 29.4941L12.8092 24.0417C13.9065 22.7016 15.3442 21.4621 18.3962 21.4621H37.7426C41.833 21.4621 43.2623 20.0131 43.2749 20.0006L43.7458 19.5064V24.5275C43.7458 24.5317 43.8046 25.2478 43.1404 25.9764C42.2071 26.994 40.3911 27.5133 37.7426 27.5133H13.5491C10.4635 27.5133 8.36572 29.4941 8.36572 29.4941Z" fill="#FF0000"/>
<path d="M93.2846 11.7424C93.2846 11.7424 92.4565 12.6427 90.9557 12.6427C89.4507 12.6427 76.2967 12.6427 76.2967 12.6427C76.2967 12.6427 74.531 12.4543 73.4422 13.5808C72.3534 14.7031 72.3156 16.0892 72.3156 16.0892L71.6009 30.3149C71.6009 30.3149 71.4117 31.6633 72.3912 32.3376C73.3665 33.0118 74.0434 32.861 75.0986 32.526C76.1495 32.191 78.1043 31.7764 80.097 31.7764C82.0896 31.7764 86.5626 32.0779 86.5626 36.9064C86.5626 41.7348 83.1028 42.5975 79.912 42.5975C76.7171 42.5975 74.2368 42.4844 71.4159 39.976L70.5499 44.8798C70.5499 44.8798 70.2472 46.1528 71.3403 46.9401C72.4291 47.7274 74.7622 48.812 79.5715 48.812C84.3808 48.812 87.8406 48.2132 90.8085 44.8421C93.7765 41.471 93.2888 36.8687 93.2888 36.8687C93.2888 36.8687 93.478 31.6633 90.3587 28.9706C87.2394 26.2737 84.0823 25.1891 78.18 26.0141L78.5542 18.7861H88.3619C88.3619 18.7861 90.1275 19.0122 91.0313 18.1496C91.9352 17.2869 91.973 16.5415 91.973 16.5415L93.2846 11.7424Z" fill="white"/>
<path d="M110.802 33.3091H116.103C116.103 33.3091 116.65 33.4222 116.65 33.8535C116.65 34.2848 116.65 39.1133 116.65 39.1133C116.65 39.1133 117.045 42.5598 111.82 42.5598C106.594 42.5598 105.169 39.2264 104.341 34.3225C103.513 29.4187 104.753 23.3884 106.22 21.7803C107.687 20.1722 109.453 19.1965 112.871 19.0081C116.293 18.8196 118.584 19.0081 118.584 19.0081C118.584 19.0081 119.412 19.0457 120.312 18.2208C121.215 17.3958 121.253 16.9854 121.253 16.9854L122.796 11.7424C122.796 11.7424 121.745 12.605 120.391 12.605C119.038 12.605 111.185 12.605 111.185 12.605C111.185 12.605 104.568 12.7558 101.112 17.5465C97.6525 22.3373 97.2405 26.7553 97.2405 30.2772C97.2405 33.7991 97.6525 39.264 99.7208 42.5556C101.789 45.8513 104.459 48.8078 111.937 48.8078C119.416 48.8078 121.636 45.3614 122.46 43.4559C123.284 41.5505 123.401 39.8629 123.401 39.0002C123.401 38.1375 123.401 31.7387 123.401 31.7387C123.401 31.7387 123.591 29.8668 122.275 28.4807C120.959 27.0945 119.08 26.9438 119.08 26.9438H113.779C113.779 26.9438 112.311 27.0192 111.937 28.778C111.551 30.541 110.802 33.3091 110.802 33.3091Z" fill="white"/>
</g>
<defs>
<clipPath id="clip0_312_1060">
<rect width="143" height="63" fill="white"/>
</clipPath>
</defs>
</svg>
