<svg width="28" height="28" viewBox="0 0 28 28" fill="none" xmlns="http://www.w3.org/2000/svg">
<path d="M13.9998 19.8333C13.381 19.8333 12.7875 19.5875 12.3499 19.1499C11.9123 18.7123 11.6665 18.1188 11.6665 17.5C11.6665 16.205 12.7048 15.1667 13.9998 15.1667C14.6187 15.1667 15.2122 15.4125 15.6498 15.8501C16.0873 16.2877 16.3332 16.8812 16.3332 17.5C16.3332 18.1188 16.0873 18.7123 15.6498 19.1499C15.2122 19.5875 14.6187 19.8333 13.9998 19.8333ZM20.9998 23.3333V11.6667H6.99984V23.3333H20.9998ZM20.9998 9.33333C21.6187 9.33333 22.2122 9.57917 22.6498 10.0168C23.0873 10.4543 23.3332 11.0478 23.3332 11.6667V23.3333C23.3332 23.9522 23.0873 24.5457 22.6498 24.9832C22.2122 25.4208 21.6187 25.6667 20.9998 25.6667H6.99984C6.381 25.6667 5.78751 25.4208 5.34992 24.9832C4.91234 24.5457 4.6665 23.9522 4.6665 23.3333V11.6667C4.6665 10.3717 5.70484 9.33333 6.99984 9.33333H8.1665V7C8.1665 5.4529 8.78109 3.96917 9.87505 2.87521C10.969 1.78125 12.4527 1.16667 13.9998 1.16667C14.7659 1.16667 15.5244 1.31755 16.2322 1.6107C16.9399 1.90385 17.583 2.33353 18.1246 2.87521C18.6663 3.41688 19.096 4.05995 19.3891 4.76768C19.6823 5.47541 19.8332 6.23395 19.8332 7V9.33333H20.9998ZM13.9998 3.5C13.0716 3.5 12.1813 3.86875 11.525 4.52513C10.8686 5.1815 10.4998 6.07174 10.4998 7V9.33333H17.4998V7C17.4998 6.07174 17.1311 5.1815 16.4747 4.52513C15.8183 3.86875 14.9281 3.5 13.9998 3.5Z" fill="white"/>
</svg>
