<svg width="24" height="24" viewBox="0 0 24 24" fill="none" xmlns="http://www.w3.org/2000/svg">
<path d="M3.8335 5.00004C3.8335 4.69062 3.95641 4.39388 4.17521 4.17508C4.394 3.95629 4.69074 3.83337 5.00016 3.83337H19.0002C19.3096 3.83337 19.6063 3.95629 19.8251 4.17508C20.0439 4.39388 20.1668 4.69062 20.1668 5.00004V19C20.1668 19.3095 20.0439 19.6062 19.8251 19.825C19.6063 20.0438 19.3096 20.1667 19.0002 20.1667H5.00016C4.69074 20.1667 4.394 20.0438 4.17521 19.825C3.95641 19.6062 3.8335 19.3095 3.8335 19V5.00004Z" stroke="#F8F8F8" stroke-width="2" stroke-linecap="round" stroke-linejoin="round"/>
<path d="M1.5 9.66667H3.83333M1.5 14.3333H3.83333M9.66667 1.5V3.83333M14.3333 1.5V3.83333M22.5 9.66667H20.1667M22.5 14.3333H20.1667M14.3333 22.5V20.1667M9.66667 22.5V20.1667M8.5 8.5H15.5V15.5H8.5V8.5Z" stroke="#F8F8F8" stroke-width="2" stroke-linecap="round" stroke-linejoin="round"/>
</svg>
