<svg width="26" height="26" viewBox="0 0 26 26" fill="none" xmlns="http://www.w3.org/2000/svg">
<path fill-rule="evenodd" clip-rule="evenodd" d="M4.07627 1.9094C4.43181 1.55386 4.91402 1.35413 5.41683 1.35413H20.5835C21.0863 1.35413 21.5685 1.55386 21.9241 1.9094C22.2796 2.26494 22.4793 2.74715 22.4793 3.24996V22.75C22.4793 23.2528 22.2796 23.735 21.9241 24.0905C21.5685 24.4461 21.0863 24.6458 20.5835 24.6458H5.41683C4.91402 24.6458 4.43181 24.4461 4.07627 24.0905C3.72074 23.735 3.521 23.2528 3.521 22.75V3.24996C3.521 2.74715 3.72074 2.26494 4.07627 1.9094ZM5.41683 2.97913C5.345 2.97913 5.27611 3.00766 5.22532 3.05845C5.17453 3.10924 5.146 3.17813 5.146 3.24996V22.75C5.146 22.8218 5.17453 22.8907 5.22532 22.9415C5.27611 22.9923 5.345 23.0208 5.41683 23.0208H20.5835C20.6553 23.0208 20.7242 22.9923 20.775 22.9415C20.8258 22.8907 20.8543 22.8218 20.8543 22.75V3.24996C20.8543 3.17813 20.8258 3.10924 20.775 3.05845C20.7242 3.00766 20.6553 2.97913 20.5835 2.97913H5.41683ZM8.396 16.25C8.396 15.8012 8.75976 15.4375 9.2085 15.4375H16.7918C17.2406 15.4375 17.6043 15.8012 17.6043 16.25C17.6043 16.6987 17.2406 17.0625 16.7918 17.0625H9.2085C8.75976 17.0625 8.396 16.6987 8.396 16.25ZM8.396 19.5C8.396 19.0512 8.75976 18.6875 9.2085 18.6875H13.0002C13.4489 18.6875 13.8127 19.0512 13.8127 19.5C13.8127 19.9487 13.4489 20.3125 13.0002 20.3125H9.2085C8.75976 20.3125 8.396 19.9487 8.396 19.5Z" fill="white"/>
<path fill-rule="evenodd" clip-rule="evenodd" d="M16.8245 6.4671C17.1418 6.7844 17.1418 7.29885 16.8245 7.61615L12.4912 11.9495C12.1739 12.2668 11.6594 12.2668 11.3421 11.9495L9.17548 9.78282C8.85817 9.46552 8.85817 8.95107 9.17548 8.63377C9.49278 8.31647 10.0072 8.31647 10.3245 8.63377L11.9167 10.2259L15.6755 6.4671C15.9928 6.1498 16.5072 6.1498 16.8245 6.4671Z" fill="white"/>
</svg>
