<svg width="20" height="22" viewBox="0 0 20 22" fill="none" xmlns="http://www.w3.org/2000/svg">
<path d="M14.9249 12.798C14.5266 15.3019 12.4724 17.2172 9.99992 17.2172C7.24325 17.2172 4.99992 14.8379 4.99992 11.9141C4.99992 8.9904 7.24325 6.61111 9.99992 6.61111H11.8099L10.0716 8.4548L11.2499 9.70455L14.9999 5.72727L11.2499 1.75L10.0716 2.99975L11.8099 4.84343H9.99992C8.23181 4.84343 6.53612 5.58838 5.28587 6.9144C4.03563 8.24041 3.33325 10.0389 3.33325 11.9141C3.33325 13.7894 4.03563 15.5879 5.28587 16.9139C6.53612 18.2399 8.23181 18.9848 9.99992 18.9848C13.3991 18.9848 16.1983 16.2847 16.6091 12.798H14.9249Z" fill="white"/>
</svg>
