<svg width="22" height="21" viewBox="0 0 22 21" fill="none" xmlns="http://www.w3.org/2000/svg">
<path d="M2.75 5.90625V7.875H7.68075C7.86273 7.87496 8.03728 7.80605 8.16613 7.68338L10.0279 5.90625L8.16613 4.12912C8.03728 4.00645 7.86273 3.93754 7.68075 3.9375H4.8125C4.26549 3.9375 3.74089 4.14492 3.35409 4.51413C2.9673 4.88335 2.75 5.38411 2.75 5.90625ZM1.375 5.90625C1.375 5.03601 1.73716 4.20141 2.38182 3.58606C3.02648 2.9707 3.90082 2.625 4.8125 2.625H7.68075C8.22757 2.62546 8.75183 2.83318 9.13825 3.2025L11.2846 5.25H17.1875C18.0992 5.25 18.9735 5.5957 19.6182 6.21106C20.2628 6.82641 20.625 7.66101 20.625 8.53125V11.9241C20.4041 11.8498 20.1716 11.8121 19.9375 11.8125H19.25V8.53125C19.25 8.00911 19.0327 7.50835 18.6459 7.13913C18.2591 6.76992 17.7345 6.5625 17.1875 6.5625H11.2846L9.13962 8.61C8.94796 8.79318 8.72033 8.93848 8.46976 9.03757C8.21919 9.13667 7.9506 9.18762 7.67938 9.1875H2.75V15.0938C2.75 15.6159 2.9673 16.1167 3.35409 16.4859C3.74089 16.8551 4.26549 17.0625 4.8125 17.0625H11.1169C11.2068 17.3046 11.3456 17.5275 11.5252 17.7188C11.3456 17.91 11.2068 18.1329 11.1169 18.375H4.8125C3.90082 18.375 3.02648 18.0293 2.38182 17.4139C1.73716 16.7986 1.375 15.964 1.375 15.0938V5.90625ZM13.0625 13.125C12.8802 13.125 12.7053 13.1941 12.5764 13.3172C12.4474 13.4403 12.375 13.6072 12.375 13.7812C12.375 13.9553 12.4474 14.1222 12.5764 14.2453C12.7053 14.3684 12.8802 14.4375 13.0625 14.4375H19.9375C20.1198 14.4375 20.2947 14.3684 20.4236 14.2453C20.5526 14.1222 20.625 13.9553 20.625 13.7812C20.625 13.6072 20.5526 13.4403 20.4236 13.3172C20.2947 13.1941 20.1198 13.125 19.9375 13.125H13.0625ZM13.0625 15.75C12.8802 15.75 12.7053 15.8191 12.5764 15.9422C12.4474 16.0653 12.375 16.2322 12.375 16.4062C12.375 16.5803 12.4474 16.7472 12.5764 16.8703C12.7053 16.9934 12.8802 17.0625 13.0625 17.0625H19.9375C20.1198 17.0625 20.2947 16.9934 20.4236 16.8703C20.5526 16.7472 20.625 16.5803 20.625 16.4062C20.625 16.2322 20.5526 16.0653 20.4236 15.9422C20.2947 15.8191 20.1198 15.75 19.9375 15.75H13.0625ZM12.375 19.0312C12.375 18.8572 12.4474 18.6903 12.5764 18.5672C12.7053 18.4441 12.8802 18.375 13.0625 18.375H19.9375C20.1198 18.375 20.2947 18.4441 20.4236 18.5672C20.5526 18.6903 20.625 18.8572 20.625 19.0312C20.625 19.2053 20.5526 19.3722 20.4236 19.4953C20.2947 19.6184 20.1198 19.6875 19.9375 19.6875H13.0625C12.8802 19.6875 12.7053 19.6184 12.5764 19.4953C12.4474 19.3722 12.375 19.2053 12.375 19.0312Z" fill="white"/>
</svg>
