<svg width="20" height="20" viewBox="0 0 20 20" fill="none" xmlns="http://www.w3.org/2000/svg">
<path d="M14.7086 5.29157C14.0101 4.5868 13.1622 4.04792 12.2276 3.71473C11.2929 3.38155 10.2953 3.26257 9.30855 3.36657C6.25022 3.67491 3.73355 6.15824 3.39189 9.21658C2.93355 13.2582 6.05855 16.6666 10.0002 16.6666C11.2586 16.6666 12.4912 16.3095 13.5548 15.6369C14.6184 14.9642 15.4692 14.0036 16.0086 12.8666C16.2752 12.3082 15.8752 11.6666 15.2586 11.6666C14.9502 11.6666 14.6586 11.8332 14.5252 12.1082C14.0414 13.1491 13.2139 13.9916 12.1818 14.4939C11.1498 14.9963 9.97622 15.1279 8.85855 14.8666C7.00855 14.4582 5.51689 12.9499 5.12522 11.0999C4.96058 10.3685 4.96249 9.60935 5.1308 8.87874C5.29911 8.14813 5.62952 7.4647 6.0976 6.87901C6.56567 6.29332 7.15942 5.82035 7.83495 5.49509C8.51047 5.16983 9.25047 5.0006 10.0002 4.99991C11.3836 4.99991 12.6169 5.57491 13.5169 6.48324L12.2586 7.74157C11.7336 8.26657 12.1002 9.16657 12.8419 9.16657H15.8336C16.2919 9.16657 16.6669 8.79157 16.6669 8.33324V5.34157C16.6669 4.59991 15.7669 4.22491 15.2419 4.74991L14.7086 5.29157Z" fill="black"/>
</svg>
