<svg width="32" height="32" viewBox="0 0 32 32" fill="none" xmlns="http://www.w3.org/2000/svg">
<path d="M17.2337 12.8641L24.3537 5.77738C24.4781 5.65294 24.6257 5.59338 24.7964 5.59872C24.9661 5.60494 25.1164 5.67294 25.247 5.80272C25.3715 5.92716 25.4337 6.08005 25.4337 6.26138C25.4337 6.44272 25.3715 6.59561 25.247 6.72005L17.987 13.9801C17.7719 14.1952 17.5208 14.3027 17.2337 14.3027C16.9466 14.3027 16.6955 14.1952 16.4804 13.9801L12.987 10.4867C12.8573 10.3569 12.7897 10.2001 12.7844 10.0161C12.7781 9.83116 12.8484 9.67383 12.995 9.54405C13.1248 9.41961 13.2821 9.36005 13.467 9.36538C13.6519 9.37161 13.8093 9.43961 13.939 9.56938L17.2337 12.8641ZM18.395 27.7387C18.4804 27.7725 18.5573 27.7894 18.6257 27.7894C18.6941 27.7894 18.771 27.7725 18.8564 27.7387L26.611 25.3494C26.5844 24.9441 26.4617 24.6521 26.243 24.4734C26.0235 24.2947 25.7804 24.2054 25.5137 24.2054H19.1897C18.6244 24.2054 18.1124 24.1832 17.6537 24.1387C17.1959 24.0943 16.727 23.9881 16.247 23.8201L13.9617 23.0841C13.7768 23.0245 13.6453 22.9049 13.567 22.7254C13.4888 22.5458 13.4795 22.3636 13.539 22.1787C13.5986 22.0116 13.7128 21.8872 13.8817 21.8054C14.0506 21.7236 14.227 21.7134 14.411 21.7747L16.4777 22.5227C16.9061 22.6685 17.3808 22.7618 17.9017 22.8027C18.4226 22.8436 19.0684 22.8667 19.839 22.8721H20.1804C20.1804 22.4569 20.1035 22.1209 19.9497 21.8641C19.7968 21.6081 19.5777 21.4294 19.2924 21.3281L11.6204 18.5134C11.5697 18.4956 11.523 18.4823 11.4804 18.4734C11.4377 18.4654 11.3906 18.4614 11.339 18.4614H8.53903V24.8721L18.395 27.7387ZM18.0537 29.0561L8.53903 26.2721C8.41281 26.7983 8.14392 27.2178 7.73236 27.5307C7.3217 27.8436 6.87325 28.0001 6.38703 28.0001H5.36036C4.76481 28.0001 4.25681 27.7903 3.83636 27.3707C3.41681 26.9512 3.20703 26.4432 3.20703 25.8467V19.2827C3.20703 18.6854 3.41681 18.1769 3.83636 17.7574C4.25592 17.3378 4.76392 17.1281 5.36036 17.1281H11.315C11.4359 17.1281 11.5613 17.1405 11.691 17.1654C11.8208 17.1903 11.9439 17.2249 12.0604 17.2694L19.767 20.0921C20.2435 20.2734 20.6537 20.5992 20.9977 21.0694C21.3426 21.5396 21.515 22.1405 21.515 22.8721H25.515C26.3177 22.8721 26.9328 23.1232 27.3604 23.6254C27.7879 24.1285 28.0017 24.7663 28.0017 25.5387C28.0017 25.8054 27.9297 26.0307 27.7857 26.2147C27.6408 26.3978 27.4297 26.5356 27.1524 26.6281L19.307 29.0494C19.1141 29.1036 18.9097 29.1347 18.6937 29.1427C18.4786 29.1516 18.2657 29.1227 18.055 29.0561M4.53903 25.8467C4.53903 26.0858 4.61592 26.2823 4.7697 26.4361C4.92348 26.5898 5.11992 26.6667 5.35903 26.6667H6.3857C6.62481 26.6667 6.82125 26.6027 6.97503 26.4747C7.12881 26.3467 7.2057 26.1374 7.2057 25.8467V18.4614H5.35903C5.11992 18.4614 4.92348 18.5383 4.7697 18.6921C4.61592 18.8458 4.53903 19.0427 4.53903 19.2827V25.8467Z" fill="white"/>
</svg>
