<svg width="21" height="20" viewBox="0 0 21 20" fill="none" xmlns="http://www.w3.org/2000/svg">
<path d="M2.45751 2.39752L13.0163 0.901683C13.0759 0.893203 13.1366 0.89753 13.1944 0.914371C13.2521 0.931212 13.3056 0.960174 13.3511 0.999294C13.3965 1.03841 13.433 1.08678 13.458 1.14111C13.483 1.19544 13.496 1.25446 13.4959 1.31418V18.6859C13.4959 18.7455 13.483 18.8044 13.4581 18.8587C13.4331 18.913 13.3967 18.9613 13.3513 19.0004C13.3059 19.0395 13.2526 19.0685 13.195 19.0854C13.1373 19.1023 13.0767 19.1067 13.0171 19.0983L2.45667 17.6025C2.25643 17.5742 2.0732 17.4752 1.94065 17.3236C1.80809 17.1721 1.73511 16.9782 1.73511 16.7775V3.22252C1.73511 3.02186 1.80809 2.82794 1.94065 2.67639C2.0732 2.52483 2.25643 2.42581 2.45667 2.39752H2.45751ZM3.41595 3.94585V16.0542L11.8159 17.245V2.75502L3.41595 3.94585ZM14.3359 15.8334H16.8559V4.16668H14.3359V2.50002H17.6959C17.9187 2.50002 18.1324 2.58781 18.2899 2.74409C18.4474 2.90037 18.5359 3.11234 18.5359 3.33335V16.6667C18.5359 16.8877 18.4474 17.0997 18.2899 17.2559C18.1324 17.4122 17.9187 17.5 17.6959 17.5H14.3359V15.8334ZM8.62395 10L10.9759 13.3334H8.95995L7.61595 11.4283L6.27195 13.3334H4.25595L6.60795 10L4.25595 6.66668H6.27195L7.61595 8.57168L8.95995 6.66668H10.9759L8.62395 10Z" fill="#7BA646"/>
</svg>
