<svg width="24" height="18" viewBox="0 0 24 18" fill="none" xmlns="http://www.w3.org/2000/svg">
<path d="M20.6667 4.66666H17.7778V1.05555C17.7778 0.864005 17.7017 0.680305 17.5663 0.544862C17.4308 0.409419 17.2471 0.333328 17.0556 0.333328H1.16668C0.975135 0.333328 0.791435 0.409419 0.655992 0.544862C0.520549 0.680305 0.444458 0.864005 0.444458 1.05555V14.0555C0.444458 14.2471 0.520549 14.4308 0.655992 14.5662C0.791435 14.7017 0.975135 14.7778 1.16668 14.7778H1.8889V1.77777H16.3333V11.5205C15.891 11.6614 15.4844 11.8963 15.1416 12.2092C14.7987 12.5222 14.5277 12.9057 14.3472 13.3333H9.42168C9.17311 12.7405 8.7543 12.2346 8.21822 11.8798C7.68214 11.525 7.05287 11.3371 6.41001 11.34C5.79921 11.3535 5.20538 11.5435 4.70027 11.8872C4.19516 12.2309 3.80037 12.7135 3.56362 13.2767C3.32687 13.8399 3.25828 14.4597 3.36614 15.061C3.47399 15.6624 3.75368 16.2196 4.17141 16.6654C4.58914 17.1113 5.12704 17.4266 5.72011 17.5733C6.31318 17.72 6.93605 17.6919 7.51346 17.4922C8.09087 17.2926 8.59812 16.93 8.97391 16.4483C9.34971 15.9666 9.57797 15.3864 9.63113 14.7778H14.1667C14.251 15.5723 14.6263 16.3076 15.2203 16.842C15.8144 17.3763 16.5852 17.672 17.3842 17.672C18.1832 17.672 18.954 17.3763 19.548 16.842C20.1421 16.3076 20.5174 15.5723 20.6017 14.7778H23.5556V7.55555C23.5556 6.78937 23.2512 6.05457 22.7094 5.5128C22.1677 4.97102 21.4329 4.66666 20.6667 4.66666ZM6.41001 16.2222C6.1754 16.2374 5.94016 16.2044 5.71883 16.1251C5.4975 16.0458 5.29479 15.9219 5.12325 15.7611C4.9517 15.6004 4.81496 15.4061 4.72148 15.1904C4.628 14.9747 4.57976 14.742 4.57976 14.5069C4.57976 14.2718 4.628 14.0392 4.72148 13.8235C4.81496 13.6078 4.9517 13.4135 5.12325 13.2527C5.29479 13.092 5.4975 12.9681 5.71883 12.8888C5.94016 12.8095 6.1754 12.7764 6.41001 12.7917C6.64463 12.7764 6.87987 12.8095 7.1012 12.8888C7.32253 12.9681 7.52523 13.092 7.69678 13.2527C7.86833 13.4135 8.00507 13.6078 8.09855 13.8235C8.19203 14.0392 8.24026 14.2718 8.24026 14.5069C8.24026 14.742 8.19203 14.9747 8.09855 15.1904C8.00507 15.4061 7.86833 15.6004 7.69678 15.7611C7.52523 15.9219 7.32253 16.0458 7.1012 16.1251C6.87987 16.2044 6.64463 16.2374 6.41001 16.2222ZM17.3661 16.2222C17.0301 16.2052 16.7064 16.09 16.4352 15.8908C16.164 15.6916 15.9573 15.4172 15.8406 15.1016C15.7239 14.786 15.7024 14.4431 15.7788 14.1154C15.8552 13.7877 16.026 13.4896 16.2702 13.2581C16.5144 13.0266 16.8212 12.8718 17.1525 12.8131C17.4838 12.7543 17.8251 12.794 18.134 12.9274C18.443 13.0607 18.706 13.2818 18.8904 13.5633C19.0749 13.8447 19.1727 14.1741 19.1717 14.5105C19.1651 14.742 19.113 14.9699 19.0184 15.1812C18.9237 15.3925 18.7883 15.5831 18.62 15.742C18.4516 15.901 18.2536 16.0252 18.0372 16.1076C17.8208 16.19 17.5903 16.229 17.3589 16.2222H17.3661ZM22.1111 8.27777H17.7778V6.11111H20.6667C21.0498 6.11111 21.4172 6.26329 21.6881 6.53417C21.9589 6.80506 22.1111 7.17246 22.1111 7.55555V8.27777Z" fill="white"/>
</svg>
