<svg width="26" height="26" viewBox="0 0 26 26" fill="none" xmlns="http://www.w3.org/2000/svg">
<path d="M17.019 13.7692C18.0811 12.9335 18.8564 11.7877 19.2369 10.4909C19.6174 9.19421 19.5843 7.81112 19.1421 6.53409C18.7 5.25706 17.8708 4.14959 16.77 3.36576C15.6691 2.58193 14.3513 2.16071 12.9999 2.16071C11.6485 2.16071 10.3307 2.58193 9.2298 3.36576C8.12893 4.14959 7.29975 5.25706 6.8576 6.53409C6.41546 7.81112 6.38235 9.19421 6.76287 10.4909C7.14338 11.7877 7.91862 12.9335 8.98071 13.7692C7.16079 14.4983 5.57285 15.7076 4.38617 17.2682C3.1995 18.8289 2.45857 20.6822 2.24237 22.6308C2.22673 22.7731 2.23925 22.9171 2.27924 23.0545C2.31922 23.1919 2.38588 23.3201 2.47541 23.4318C2.65623 23.6573 2.91922 23.8017 3.20654 23.8333C3.49386 23.8649 3.78196 23.7811 4.00748 23.6003C4.23299 23.4195 4.37744 23.1565 4.40904 22.8692C4.64692 20.7515 5.6567 18.7956 7.24545 17.3754C8.83419 15.9551 10.8905 15.1699 13.0215 15.1699C15.1526 15.1699 17.2089 15.9551 18.7976 17.3754C20.3864 18.7956 21.3962 20.7515 21.634 22.8692C21.6635 23.1354 21.7905 23.3812 21.9906 23.5593C22.1906 23.7373 22.4496 23.835 22.7174 23.8333H22.8365C23.1205 23.8007 23.3801 23.6571 23.5586 23.4339C23.7372 23.2106 23.8203 22.9259 23.7899 22.6417C23.5727 20.6876 22.8277 18.8294 21.635 17.2664C20.4422 15.7034 18.8465 14.4944 17.019 13.7692ZM12.9999 13C12.1428 13 11.305 12.7459 10.5924 12.2697C9.87979 11.7935 9.32438 11.1168 8.9964 10.325C8.66842 9.53315 8.5826 8.66186 8.7498 7.82128C8.91701 6.98069 9.32972 6.20857 9.93575 5.60254C10.5418 4.99651 11.3139 4.5838 12.1545 4.4166C12.9951 4.24939 13.8664 4.33521 14.6582 4.66319C15.45 4.99117 16.1268 5.54658 16.6029 6.2592C17.0791 6.97181 17.3332 7.80962 17.3332 8.66667C17.3332 9.81594 16.8767 10.9181 16.064 11.7308C15.2513 12.5435 14.1491 13 12.9999 13Z" fill="white" />
</svg>
