<svg width="75" height="67" viewBox="0 0 75 67" fill="none" xmlns="http://www.w3.org/2000/svg">
<g opacity="0.45">
<path d="M72.5005 22.5H65.0005L57.5005 33.75H53.7505L50.0005 30H47.4997L42.5005 36.2496H37.5001L32.4997 27.5004H27.5005L25.0009 31.2504H20.0005L15.0001 37.5H12.5005" stroke="white" stroke-width="2" stroke-miterlimit="10"/>
<path d="M0 65.0004H75" stroke="white" stroke-width="2" stroke-miterlimit="10"/>
<path d="M12.5005 54.9996H18.7501L23.7505 48.75H31.2505L35.0005 53.7504H42.5005L52.5001 43.7496H60.0001L63.7501 37.5H72.5005" stroke="white" stroke-width="2" stroke-miterlimit="10"/>
<path d="M5.00037 57.5004H0" stroke="white" stroke-width="2" stroke-miterlimit="10"/>
<path d="M5.00037 50.0004H0" stroke="white" stroke-width="2" stroke-miterlimit="10"/>
<path d="M5.00037 42.5004H0" stroke="white" stroke-width="2" stroke-miterlimit="10"/>
<path d="M5.00037 35.0004H0" stroke="white" stroke-width="2" stroke-miterlimit="10"/>
<path d="M5.00037 27.5004H0" stroke="white" stroke-width="2" stroke-miterlimit="10"/>
<path d="M5.00037 20.0004H0" stroke="white" stroke-width="2" stroke-miterlimit="10"/>
<path d="M8.75049 65.0004V18.75" stroke="white" stroke-width="2" stroke-miterlimit="10"/>
<path d="M62.4995 8.75037V16.2504" stroke="#BCC0C4" stroke-width="2" stroke-miterlimit="10"/>
<path d="M66.2495 12.5004H58.7495" stroke="#BCC0C4" stroke-width="2" stroke-miterlimit="10"/>
<path d="M43.7495 13.7496V21.2496" stroke="#BCC0C4" stroke-width="2" stroke-miterlimit="10"/>
<path d="M47.4995 17.4996H39.9995" stroke="#BCC0C4" stroke-width="2" stroke-miterlimit="10"/>
<path d="M53.7505 0V7.5" stroke="#BCC0C4" stroke-width="2" stroke-miterlimit="10"/>
<path d="M57.5005 3.75H50.0005" stroke="#BCC0C4" stroke-width="2" stroke-miterlimit="10"/>
</g>
</svg>
