<svg width="12" height="7" viewBox="0 0 12 7" fill="none" xmlns="http://www.w3.org/2000/svg">
<path d="M1.71268 6.71027L5.99915 2.41381L10.2856 6.71027C10.3785 6.80392 10.489 6.87825 10.6108 6.92898C10.7325 6.97971 10.8631 7.00582 10.995 7.00582C11.1269 7.00582 11.2575 6.97971 11.3793 6.92898C11.501 6.87825 11.6116 6.80392 11.7044 6.71027C11.7981 6.61738 11.8724 6.50687 11.9232 6.38511C11.9739 6.26335 12 6.13276 12 6.00085C12 5.86895 11.9739 5.73835 11.9232 5.61659C11.8724 5.49483 11.7981 5.38432 11.7044 5.29144L6.70856 0.295555C6.61568 0.201903 6.50517 0.12757 6.38341 0.0768436C6.26165 0.0261167 6.13105 0 5.99915 0C5.86724 0 5.73665 0.0261167 5.61489 0.0768436C5.49313 0.12757 5.38262 0.201903 5.28973 0.295555L0.29385 5.29144C0.200688 5.3846 0.126788 5.4952 0.0763693 5.61692C0.0259505 5.73864 0 5.8691 0 6.00085C0 6.26693 0.105701 6.52212 0.29385 6.71027C0.481998 6.89842 0.737183 7.00412 1.00326 7.00412C1.26935 7.00412 1.52453 6.89842 1.71268 6.71027Z" fill="black"/>
</svg>
