<svg width="20" height="24" viewBox="0 0 20 24" fill="none" xmlns="http://www.w3.org/2000/svg">
<path fill-rule="evenodd" clip-rule="evenodd" d="M1.07627 0.909464C1.43181 0.553926 1.91402 0.354187 2.41683 0.354187H17.5835C18.0863 0.354187 18.5685 0.553925 18.9241 0.909464C19.2796 1.265 19.4793 1.74722 19.4793 2.25002V21.75C19.4793 22.2528 19.2796 22.735 18.9241 23.0906C18.5685 23.4461 18.0863 23.6459 17.5835 23.6459H2.41683C1.91402 23.6459 1.43181 23.4461 1.07627 23.0906C0.720735 22.735 0.520996 22.2528 0.520996 21.75V2.25002C0.520996 1.74721 0.720736 1.265 1.07627 0.909464ZM2.41683 1.97919C2.345 1.97919 2.27611 2.00772 2.22532 2.05851C2.17453 2.1093 2.146 2.17819 2.146 2.25002V21.75C2.146 21.8218 2.17453 21.8907 2.22532 21.9415C2.27611 21.9923 2.345 22.0209 2.41683 22.0209H17.5835C17.6553 22.0209 17.7242 21.9923 17.775 21.9415C17.8258 21.8907 17.8543 21.8219 17.8543 21.75V2.25002C17.8543 2.17819 17.8258 2.1093 17.775 2.05851C17.7242 2.00772 17.6553 1.97919 17.5835 1.97919H2.41683ZM5.396 15.25C5.396 14.8013 5.75976 14.4375 6.2085 14.4375H13.7918C14.2406 14.4375 14.6043 14.8013 14.6043 15.25C14.6043 15.6988 14.2406 16.0625 13.7918 16.0625H6.2085C5.75976 16.0625 5.396 15.6988 5.396 15.25ZM5.396 18.5C5.396 18.0513 5.75976 17.6875 6.2085 17.6875H10.0002C10.4489 17.6875 10.8127 18.0513 10.8127 18.5C10.8127 18.9487 10.4489 19.3125 10.0002 19.3125H6.2085C5.75976 19.3125 5.396 18.9487 5.396 18.5Z" fill="white"/>
<path fill-rule="evenodd" clip-rule="evenodd" d="M13.8245 5.46716C14.1418 5.78446 14.1418 6.29891 13.8245 6.61621L9.49119 10.9495C9.17389 11.2668 8.65944 11.2668 8.34214 10.9495L6.17548 8.78288C5.85817 8.46558 5.85817 7.95113 6.17548 7.63383C6.49278 7.31653 7.00722 7.31653 7.32452 7.63383L8.91667 9.22597L12.6755 5.46716C12.9928 5.14986 13.5072 5.14986 13.8245 5.46716Z" fill="white"/>
</svg>
