<svg width="12" height="10" viewBox="0 0 12 10" fill="none" xmlns="http://www.w3.org/2000/svg">
<path d="M10.3071 0.292163L6.07003 4.53908L1.833 0.292162C1.74118 0.199591 1.63195 0.126115 1.51159 0.0759732C1.39124 0.0258313 1.26215 1.54869e-05 1.13176 1.54755e-05C1.00138 1.54641e-05 0.872289 0.0258313 0.751935 0.0759731C0.63158 0.126115 0.522345 0.199591 0.43053 0.292162C0.337958 0.383977 0.264481 0.493213 0.214339 0.613568C0.164197 0.733923 0.138382 0.863014 0.138382 0.993396C0.138382 1.12378 0.164197 1.25287 0.214339 1.37323C0.264481 1.49358 0.337958 1.60282 0.43053 1.69463L5.3688 6.6329C5.46061 6.72547 5.56985 6.79895 5.6902 6.84909C5.81056 6.89923 5.93965 6.92505 6.07003 6.92505C6.20042 6.92505 6.32951 6.89923 6.44986 6.84909C6.57022 6.79895 6.67945 6.72547 6.77127 6.6329L11.7095 1.69463C11.8016 1.60254 11.8747 1.49322 11.9245 1.3729C11.9743 1.25259 12 1.12363 12 0.993397C12 0.730383 11.8955 0.478142 11.7095 0.292163C11.5236 0.106184 11.2713 0.00170273 11.0083 0.00170271C10.7453 0.00170268 10.493 0.106184 10.3071 0.292163Z" fill="black"/>
<line x1="12" y1="9.15649" x2="-6.55671e-08" y2="9.15649" stroke="black" stroke-width="1.5"/>
</svg>
