<svg width="24" height="24" viewBox="0 0 24 24" fill="none" xmlns="http://www.w3.org/2000/svg">
<path d="M14.0001 19.88C14.0401 20.18 13.9401 20.5 13.7101 20.71C13.6176 20.8027 13.5077 20.8763 13.3868 20.9264C13.2658 20.9766 13.1361 21.0024 13.0051 21.0024C12.8742 21.0024 12.7445 20.9766 12.6235 20.9264C12.5025 20.8763 12.3926 20.8027 12.3001 20.71L8.29013 16.7C8.18107 16.5934 8.09814 16.463 8.04783 16.319C7.99752 16.175 7.9812 16.0213 8.00013 15.87V10.75L3.21013 4.62C3.04774 4.41153 2.97446 4.14726 3.00632 3.88493C3.03817 3.6226 3.17257 3.38355 3.38013 3.22C3.57013 3.08 3.78013 3 4.00013 3H18.0001C18.2201 3 18.4301 3.08 18.6201 3.22C18.8277 3.38355 18.9621 3.6226 18.9939 3.88493C19.0258 4.14726 18.9525 4.41153 18.7901 4.62L14.0001 10.75V19.88ZM6.04013 5L10.0001 10.06V15.58L12.0001 17.58V10.05L15.9601 5H6.04013Z" fill="#646464"/>
<path d="M17.0302 15.469L18.2502 16.689L19.4702 15.47C19.5388 15.3963 19.6216 15.3372 19.7136 15.2963C19.8056 15.2553 19.9049 15.2332 20.0056 15.2314C20.1063 15.2297 20.2064 15.2482 20.2998 15.2859C20.3931 15.3236 20.478 15.3798 20.5492 15.451C20.6204 15.5222 20.6766 15.607 20.7143 15.7004C20.752 15.7938 20.7705 15.8939 20.7687 15.9946C20.767 16.0953 20.7449 16.1946 20.7039 16.2866C20.6629 16.3786 20.6038 16.4614 20.5302 16.53L19.3102 17.75L20.5302 18.97C20.6038 19.0387 20.6629 19.1215 20.7039 19.2135C20.7449 19.3055 20.767 19.4048 20.7687 19.5055C20.7705 19.6062 20.752 19.7062 20.7143 19.7996C20.6766 19.893 20.6204 19.9779 20.5492 20.0491C20.478 20.1203 20.3931 20.1764 20.2998 20.2142C20.2064 20.2519 20.1063 20.2704 20.0056 20.2686C19.9049 20.2668 19.8056 20.2448 19.7136 20.2038C19.6216 20.1628 19.5388 20.1037 19.4702 20.03L18.2502 18.81L17.0302 20.03C16.9615 20.1037 16.8787 20.1628 16.7867 20.2038C16.6947 20.2448 16.5954 20.2668 16.4947 20.2686C16.394 20.2704 16.2939 20.2519 16.2006 20.2142C16.1072 20.1764 16.0223 20.1203 15.9511 20.0491C15.8799 19.9779 15.8238 19.893 15.786 19.7996C15.7483 19.7062 15.7298 19.6062 15.7316 19.5055C15.7333 19.4048 15.7554 19.3055 15.7964 19.2135C15.8374 19.1215 15.8965 19.0387 15.9702 18.97L17.1902 17.75L15.9702 16.53C15.8985 16.4609 15.8413 16.3781 15.802 16.2867C15.7626 16.1952 15.7419 16.0968 15.741 15.9972C15.7401 15.8976 15.759 15.7988 15.7967 15.7067C15.8343 15.6145 15.89 15.5307 15.9604 15.4602C16.0307 15.3898 16.1145 15.3341 16.2066 15.2963C16.2988 15.2586 16.3975 15.2395 16.4971 15.2403C16.5967 15.2412 16.6951 15.2618 16.7866 15.3011C16.8781 15.3403 16.9609 15.3974 17.0302 15.469Z" fill="#646464"/>
</svg>
