<svg width="30" height="32" viewBox="0 0 30 32" fill="none" xmlns="http://www.w3.org/2000/svg">
<path d="M5.48125 18.7866H6.45375L7.14875 16.7413H10.7362L11.4375 18.7866H12.4275L9.54 10.5973H8.34375L5.48125 18.7866ZM7.50625 15.764L8.91125 11.684H8.97375L10.3775 15.764H7.50625ZM17.3563 12.7906V11.5493C18.0271 11.1866 18.7463 10.9146 19.5138 10.7333C20.2813 10.552 21.0683 10.4613 21.875 10.4613C22.3367 10.4613 22.7796 10.4929 23.2037 10.556C23.6287 10.6191 24.0671 10.7089 24.5187 10.8253V12.036C24.0829 11.8875 23.6579 11.7844 23.2437 11.7266C22.8296 11.6697 22.3733 11.6413 21.875 11.6413C21.0667 11.6413 20.2783 11.7382 19.51 11.932C18.7408 12.1257 18.0229 12.4115 17.3563 12.7893M17.3563 20.072V18.7786C17.9954 18.4169 18.7104 18.1457 19.5012 17.9653C20.2921 17.7831 21.0833 17.692 21.875 17.692C22.3367 17.692 22.7796 17.7235 23.2037 17.7866C23.6287 17.8506 24.0671 17.9404 24.5187 18.056V19.2666C24.0829 19.1182 23.6579 19.0151 23.2437 18.9573C22.8296 18.9004 22.3733 18.872 21.875 18.872C21.0667 18.872 20.2783 18.976 19.51 19.184C18.7408 19.3929 18.0229 19.6889 17.3563 20.072ZM17.3563 16.456V15.164C18.0271 14.8013 18.7463 14.5297 19.5138 14.3493C20.2804 14.168 21.0675 14.0773 21.875 14.0773C22.3367 14.0773 22.7796 14.1084 23.2037 14.1706C23.6287 14.2346 24.0671 14.3249 24.5187 14.4413V15.6506C24.0829 15.5022 23.6579 15.3995 23.2437 15.3426C22.8296 15.2849 22.3733 15.256 21.875 15.256C21.0667 15.256 20.2783 15.3617 19.51 15.5733C18.7408 15.784 18.0229 16.0782 17.3563 16.456ZM8.125 21.384C9.21667 21.384 10.2779 21.5177 11.3087 21.7853C12.3404 22.0529 13.3625 22.4884 14.375 23.092V10.0106C13.4725 9.32352 12.4779 8.80797 11.3912 8.46397C10.3054 8.12086 9.21667 7.9493 8.125 7.9493C7.375 7.9493 6.71833 7.99686 6.155 8.09197C5.59167 8.18797 4.96667 8.36574 4.28 8.6253C4.08667 8.69374 3.95 8.79197 3.87 8.91997C3.79 9.04886 3.75 9.19019 3.75 9.34397V21.364C3.75 21.604 3.83 21.7791 3.99 21.8893C4.15083 22.0004 4.32708 22.0137 4.51875 21.9293C4.97542 21.7649 5.50333 21.6329 6.1025 21.5333C6.70083 21.4337 7.375 21.384 8.125 21.384ZM15.625 23.092C16.6375 22.4884 17.6596 22.0529 18.6913 21.7853C19.7221 21.5186 20.7833 21.3853 21.875 21.3853C22.625 21.3853 23.2992 21.4346 23.8975 21.5333C24.4967 21.6329 25.0246 21.7644 25.4813 21.928C25.6729 22.0133 25.8492 22.0004 26.01 21.8893C26.17 21.7782 26.25 21.6031 26.25 21.364V9.34397C26.25 9.19019 26.21 9.0533 26.13 8.9333C26.05 8.8133 25.9137 8.71108 25.7212 8.62663C25.0337 8.36619 24.4083 8.18841 23.845 8.0933C23.2817 7.9973 22.625 7.9493 21.875 7.9493C20.7833 7.9493 19.6946 8.12086 18.6088 8.46397C17.5221 8.80797 16.5275 9.32352 15.625 10.0106V23.092ZM15 25.0253C13.9833 24.284 12.8917 23.7142 11.725 23.316C10.5583 22.9169 9.35833 22.7173 8.125 22.7173C7.475 22.7173 6.83583 22.7755 6.2075 22.892C5.58 23.0084 4.96917 23.1951 4.375 23.452C3.92167 23.6449 3.49583 23.5866 3.0975 23.2773C2.69917 22.968 2.5 22.5404 2.5 21.9946V9.10797C2.5 8.77819 2.58125 8.47197 2.74375 8.1893C2.90625 7.90752 3.13417 7.71108 3.4275 7.59997C4.16167 7.25508 4.92542 7.00486 5.71875 6.8493C6.51208 6.69374 7.31417 6.61597 8.125 6.61597C9.35 6.61597 10.5442 6.80397 11.7075 7.17997C12.8717 7.55597 13.9692 8.10263 15 8.81997C16.0308 8.10263 17.1283 7.55597 18.2925 7.17997C19.4567 6.80397 20.6508 6.61597 21.875 6.61597C22.6858 6.61597 23.4879 6.69374 24.2812 6.8493C25.0746 7.00486 25.8383 7.25508 26.5725 7.59997C26.8658 7.71108 27.0938 7.90752 27.2563 8.1893C27.4188 8.47197 27.5 8.77819 27.5 9.10797V21.9946C27.5 22.5404 27.285 22.9591 26.855 23.2506C26.4242 23.544 25.9658 23.5937 25.48 23.4C24.9017 23.16 24.3108 22.9866 23.7075 22.88C23.1042 22.7715 22.4933 22.7173 21.875 22.7173C20.6417 22.7173 19.4417 22.9169 18.275 23.316C17.1083 23.7142 16.0167 24.284 15 25.0253Z" fill="white"/>
</svg>
