<svg width="11" height="21" viewBox="0 0 11 21" fill="none" xmlns="http://www.w3.org/2000/svg">
<path d="M10.7269 1.68676C10.8171 1.59129 10.8876 1.47898 10.9344 1.35626C10.9812 1.23353 11.0034 1.10278 10.9997 0.971476C10.996 0.840174 10.9664 0.71089 10.9128 0.591004C10.8591 0.471118 10.7823 0.362979 10.6869 0.272761C10.5914 0.182543 10.4791 0.112012 10.3563 0.0651969C10.2336 0.0183814 10.1029 -0.00380263 9.97157 -8.82793e-05C9.84027 0.00362607 9.71098 0.0331659 9.5911 0.0868446C9.47121 0.140523 9.36307 0.21729 9.27285 0.312761L0.772854 9.31276C0.597318 9.49843 0.499512 9.74425 0.499512 9.99976C0.499512 10.2553 0.597318 10.5011 0.772854 10.6868L9.27285 19.6878C9.36248 19.7853 9.47059 19.8641 9.59092 19.9195C9.71125 19.975 9.84139 20.0059 9.97378 20.0106C10.1062 20.0153 10.2382 19.9937 10.3621 19.9469C10.4861 19.9002 10.5995 19.8293 10.6959 19.7383C10.7922 19.6474 10.8695 19.5382 10.9232 19.4171C10.977 19.296 11.0062 19.1655 11.009 19.033C11.0119 18.9006 10.9885 18.7689 10.94 18.6456C10.8916 18.5223 10.8191 18.4098 10.7269 18.3148L2.87485 9.99976L10.7269 1.68676Z" fill="#F8F8F8"/>
</svg>
