<svg width="219" height="38" viewBox="0 0 219 38" fill="none" xmlns="http://www.w3.org/2000/svg">
<path d="M29.7622 37.8881C29.7622 37.8881 30.6673 36.2662 33.3194 35.2462C35.9715 34.2262 38.9852 34.1658 41.3364 34.1658C43.6877 34.1658 71.7762 34.1658 71.7762 34.1658C71.7762 34.1658 77.8035 34.4655 80.0334 31.7632C82.2633 29.0608 82.4453 26.6003 82.4453 26.6003L86 0C86 0 84.703 1.34991 80.6351 1.89138C76.5672 2.43286 68.8207 2.88115 43.1441 2.88115C43.1441 2.88115 39.4453 2.76026 37.2306 4.02202C35.0159 5.28378 34.7453 8.70641 34.7453 8.70641L29.7622 37.8881Z" fill="#FF0000"/>
<path d="M12.5627 25.4467L8.39875 20.3392L14.4513 12.9147H11.1444C9.66286 12.9147 8.64905 13.363 7.749 14.4158L4.56091 18.3219V11.6706V7.58813H1.36018C0.609302 7.58813 0 8.19761 0 8.94812V11.6681V25.4442V28.9751H3.20073C3.95161 28.9751 4.56091 28.3656 4.56091 27.6151V25.4442V22.2885L7.15234 25.4568L9.35695 28.1591C9.80192 28.7157 10.3859 28.9726 10.9877 28.9726H15.4525L12.5627 25.4467Z" fill="white"/>
<path d="M20.7716 28.9751C18.304 28.9751 16.6025 27.2827 16.6025 24.8247V8.9456C16.6025 8.19761 17.2144 7.58813 17.9678 7.58813H21.1685V23.9734C21.1685 24.6484 21.7171 25.1949 22.3922 25.1949H25.6485V27.6151C25.6485 28.3656 25.0367 28.9751 24.2833 28.9751H20.7716Z" fill="white"/>
<path d="M5.03125 17.7377L7.70358 14.4586C8.36345 13.6527 9.2281 12.9072 11.0636 12.9072H22.6985C25.1584 12.9072 26.018 12.0358 26.0256 12.0283L26.3088 11.7311V14.7507C26.3088 14.7533 26.3442 15.1839 25.9447 15.6221C25.3834 16.2341 24.2912 16.5464 22.6985 16.5464H8.14855C6.29283 16.5464 5.03125 17.7377 5.03125 17.7377Z" fill="#FF0000"/>
<path d="M56.101 7.06177C56.101 7.06177 55.603 7.60324 54.7004 7.60324C53.7953 7.60324 45.8845 7.60324 45.8845 7.60324C45.8845 7.60324 44.8226 7.48991 44.1678 8.16738C43.513 8.84234 43.4903 9.67596 43.4903 9.67596L43.0605 18.2313C43.0605 18.2313 42.9467 19.0422 43.5358 19.4477C44.1223 19.8532 44.5294 19.7625 45.1639 19.561C45.796 19.3595 46.9716 19.1102 48.17 19.1102C49.3684 19.1102 52.0584 19.2915 52.0584 22.1954C52.0584 25.0992 49.9777 25.618 48.0587 25.618C46.1373 25.618 44.6457 25.55 42.9492 24.0414L42.4284 26.9906C42.4284 26.9906 42.2464 27.7562 42.9037 28.2296C43.5585 28.7031 44.9617 29.3554 47.854 29.3554C50.7462 29.3554 52.827 28.9953 54.6119 26.9679C56.3968 24.9405 56.1036 22.1727 56.1036 22.1727C56.1036 22.1727 56.2173 19.0422 54.3414 17.4228C52.4654 15.8009 50.5667 15.1486 47.0171 15.6448L47.2421 11.2979H53.1405C53.1405 11.2979 54.2023 11.4339 54.7459 10.9151C55.2895 10.3962 55.3122 9.94795 55.3122 9.94795L56.101 7.06177Z" fill="white"/>
<path d="M66.6365 20.032H69.8246C69.8246 20.032 70.1533 20.1 70.1533 20.3594C70.1533 20.6188 70.1533 23.5226 70.1533 23.5226C70.1533 23.5226 70.3909 25.5953 67.2483 25.5953C64.1058 25.5953 63.2487 23.5906 62.7506 20.6414C62.2526 17.6923 62.9984 14.0657 63.8808 13.0986C64.7631 12.1315 65.825 11.5447 67.8804 11.4313C69.9384 11.318 71.3162 11.4313 71.3162 11.4313C71.3162 11.4313 71.8143 11.454 72.3554 10.9579C72.8989 10.4617 72.9217 10.2149 72.9217 10.2149L73.8495 7.06177C73.8495 7.06177 73.2175 7.58058 72.4034 7.58058C71.5893 7.58058 66.8666 7.58058 66.8666 7.58058C66.8666 7.58058 62.8872 7.67124 60.809 10.5524C58.7282 13.4335 58.4805 16.0905 58.4805 18.2086C58.4805 20.3266 58.7282 23.6133 59.9721 25.5928C61.216 27.5748 62.8214 29.3529 67.3191 29.3529C71.8168 29.3529 73.1517 27.2802 73.6473 26.1343C74.1428 24.9884 74.2136 23.9734 74.2136 23.4546C74.2136 22.9358 74.2136 19.0875 74.2136 19.0875C74.2136 19.0875 74.3274 17.9618 73.536 17.1282C72.7447 16.2945 71.6146 16.2039 71.6146 16.2039H68.4265C68.4265 16.2039 67.5441 16.2492 67.3191 17.307C67.0865 18.3673 66.6365 20.032 66.6365 20.032Z" fill="white"/>
<path d="M94.3138 25.368H107.53V26.712H94.3138V25.368ZM95.7858 27.896H105.866V32.328H104.186V29.24H95.7858V27.896ZM96.0098 22.92H106.042V24.216H96.0098V22.92ZM96.0098 18.072H105.946V19.368H97.6738V23.56H96.0098V18.072ZM97.1938 20.488H105.594V21.736H97.1938V20.488ZM112.649 26.392H114.329V28.76H112.649V26.392ZM118.793 17.704H120.473V32.328H118.793V17.704ZM119.913 23.8H122.553V25.192H119.913V23.8ZM109.097 29.704L108.873 28.328C111.449 28.328 114.985 28.312 117.977 27.88L118.105 29.112C114.985 29.688 111.609 29.704 109.097 29.704ZM109.129 19.4H117.817V20.728H109.129V19.4ZM113.481 21.464C115.545 21.464 116.985 22.552 116.985 24.184C116.985 25.832 115.545 26.904 113.481 26.904C111.417 26.904 109.993 25.832 109.993 24.184C109.993 22.552 111.417 21.464 113.481 21.464ZM113.481 22.744C112.329 22.744 111.577 23.304 111.577 24.184C111.577 25.08 112.329 25.624 113.481 25.624C114.633 25.624 115.401 25.08 115.401 24.184C115.401 23.304 114.633 22.744 113.481 22.744ZM112.649 17.752H114.329V20.344H112.649V17.752ZM124.279 18.776H131.111V25.192H124.279V18.776ZM129.463 20.12H125.927V23.864H129.463V20.12ZM133.495 17.704H135.175V26.264H133.495V17.704ZM134.711 21.176H137.239V22.568H134.711V21.176ZM130.471 26.712C133.463 26.712 135.335 27.768 135.335 29.512C135.335 31.288 133.463 32.328 130.471 32.328C127.463 32.328 125.591 31.288 125.591 29.512C125.591 27.768 127.463 26.712 130.471 26.712ZM130.471 28.056C128.439 28.056 127.255 28.568 127.255 29.512C127.255 30.488 128.439 31 130.471 31C132.503 31 133.671 30.488 133.671 29.512C133.671 28.568 132.503 28.056 130.471 28.056ZM142.8 18.808H149.168V20.168H142.8V18.808ZM144.832 22.136H146.48V25.784H144.832V22.136ZM148.512 18.808H150.16V19.64C150.16 20.632 150.16 22.088 149.792 23.96L148.16 23.784C148.512 21.912 148.512 20.616 148.512 19.64V18.808ZM151.888 17.704H153.584V28.68H151.888V17.704ZM152.864 22.328H155.52V23.72H152.864V22.328ZM144.112 30.68H154.048V32.04H144.112V30.68ZM144.112 27.688H145.792V31.096H144.112V27.688ZM142.08 26.52L141.92 25.176C144.496 25.176 148.048 25.128 150.992 24.712L151.104 25.912C148.08 26.456 144.624 26.52 142.08 26.52ZM167.663 17.704H169.263V32.328H167.663V17.704ZM162.559 22.84H165.199V24.216H162.559V22.84ZM164.719 17.992H166.287V31.608H164.719V17.992ZM159.599 20.024H160.879V21.72C160.879 24.952 159.791 28.088 157.567 29.496L156.559 28.248C158.639 26.968 159.599 24.328 159.599 21.72V20.024ZM159.967 20.024H161.231V21.72C161.231 24.216 162.159 26.712 164.207 27.912L163.215 29.144C160.991 27.816 159.967 24.856 159.967 21.72V20.024ZM157.023 19.304H163.631V20.664H157.023V19.304ZM178.823 18.904H180.199V21.304C180.199 24.84 178.615 28.088 175.991 29.368L174.983 27.976C177.319 26.92 178.823 24.104 178.823 21.304V18.904ZM179.143 18.904H180.503V21.304C180.503 23.992 181.991 26.68 184.295 27.704L183.303 29.048C180.727 27.832 179.143 24.712 179.143 21.304V18.904ZM185.463 17.688H187.143V32.344H185.463V17.688ZM195.494 18.632H196.95V19.736C196.95 22.904 194.294 25.528 190.998 26.232L190.262 24.84C193.158 24.312 195.494 22.04 195.494 19.736V18.632ZM195.814 18.632H197.27V19.736C197.27 22.072 199.606 24.312 202.502 24.84L201.766 26.232C198.47 25.528 195.814 22.936 195.814 19.736V18.632ZM189.83 29.064H203.078V30.44H189.83V29.064ZM210.773 21.304H213.141V22.664H210.773V21.304ZM205.157 24.392H206.117C208.309 24.392 209.653 24.344 211.269 24.04L211.429 25.368C209.749 25.688 208.373 25.736 206.117 25.736H205.157V24.392ZM205.157 18.616H210.677V19.96H206.773V25.176H205.157V18.616ZM206.293 21.464H210.117V22.76H206.293V21.464ZM215.333 17.704H216.917V26.472H215.333V17.704ZM212.485 17.944H214.069V26.344H212.485V17.944ZM207.189 27.112H216.917V32.152H207.189V27.112ZM215.285 28.44H208.837V30.808H215.285V28.44Z" fill="white"/>
</svg>
