<svg width="172" height="76" viewBox="0 0 172 76" fill="none" xmlns="http://www.w3.org/2000/svg">
<g clip-path="url(#clip0_506_756)">
<path d="M59.5244 75.7762C59.5244 75.7762 61.3346 72.5324 66.6388 70.4924C71.943 68.4525 77.9703 68.3316 82.6728 68.3316C87.3753 68.3316 143.552 68.3316 143.552 68.3316C143.552 68.3316 155.607 68.931 160.067 63.5263C164.527 58.1216 164.891 53.2005 164.891 53.2005L172 0C172 0 169.406 2.69982 161.27 3.78277C153.134 4.86572 137.641 5.7623 86.2882 5.7623C86.2882 5.7623 78.8906 5.52052 74.4611 8.04405C70.0317 10.5676 69.4907 17.4128 69.4907 17.4128L59.5244 75.7762Z" fill="#FF0000"/>
<path d="M25.1255 50.8936L16.7975 40.6786L28.9026 25.8296H22.2888C19.3257 25.8296 17.2981 26.7262 15.498 28.8316L9.12183 36.644V23.3413V15.1764H2.72037C1.2186 15.1764 0 16.3953 0 17.8964V23.3363V50.8885V57.9504H6.40146C7.90322 57.9504 9.12183 56.7314 9.12183 55.2304V50.8885V44.5772L14.3047 50.9137L18.7139 56.3184C19.6038 57.4316 20.7719 57.9453 21.9753 57.9453H30.905L25.1255 50.8936Z" fill="white"/>
<path d="M41.5436 57.9504C36.6086 57.9504 33.2056 54.5655 33.2056 49.6494V17.8913C33.2056 16.3953 34.4292 15.1764 35.936 15.1764H42.3375V47.9469C42.3375 49.2968 43.4348 50.3899 44.7848 50.3899H51.2975V55.2304C51.2975 56.7314 50.0739 57.9504 48.567 57.9504H41.5436Z" fill="white"/>
<path d="M10.0625 35.4754L15.4072 28.9173C16.7269 27.3054 18.4562 25.8145 22.1272 25.8145H45.3969C50.3169 25.8145 52.036 24.0717 52.0512 24.0566L52.6175 23.4622V29.5015C52.6175 29.5066 52.6883 30.3679 51.8894 31.2443C50.7669 32.4683 48.5825 33.0929 45.3969 33.0929H16.2971C12.5857 33.0929 10.0625 35.4754 10.0625 35.4754Z" fill="#FF0000"/>
<path d="M112.203 14.1237C112.203 14.1237 111.206 15.2066 109.401 15.2066C107.591 15.2066 91.7694 15.2066 91.7694 15.2066C91.7694 15.2066 89.6457 14.98 88.3361 16.3349C87.0265 17.6848 86.981 19.352 86.981 19.352L86.1214 36.4626C86.1214 36.4626 85.8939 38.0846 87.072 38.8955C88.2451 39.7065 89.0592 39.5251 90.3284 39.1222C91.5925 38.7192 93.9437 38.2206 96.3405 38.2206C98.7372 38.2206 104.117 38.5832 104.117 44.3908C104.117 50.1985 99.9558 51.2361 96.118 51.2361C92.2751 51.2361 89.2918 51.1001 85.8989 48.0829L84.8573 53.9812C84.8573 53.9812 84.4932 55.5125 85.8079 56.4594C87.1175 57.4064 89.9238 58.711 95.7084 58.711C101.493 58.711 105.654 57.9907 109.224 53.9359C112.794 49.8811 112.208 44.3455 112.208 44.3455C112.208 44.3455 112.435 38.0846 108.683 34.8458C104.931 31.602 101.134 30.2974 94.0347 31.2897L94.4848 22.5959H106.281C106.281 22.5959 108.405 22.8679 109.492 21.8302C110.579 20.7926 110.625 19.896 110.625 19.896L112.203 14.1237Z" fill="white"/>
<path d="M133.273 40.0641H139.649C139.649 40.0641 140.306 40.2001 140.306 40.7189C140.306 41.2377 140.306 47.0453 140.306 47.0453C140.306 47.0453 140.781 51.1908 134.496 51.1908C128.211 51.1908 126.497 47.1813 125.501 41.283C124.505 35.3847 125.996 28.1315 127.761 26.1973C129.526 24.2631 131.649 23.0895 135.76 22.8628C139.876 22.6362 142.632 22.8628 142.632 22.8628C142.632 22.8628 143.628 22.9082 144.71 21.9159C145.797 20.9236 145.843 20.43 145.843 20.43L147.699 14.1237C147.699 14.1237 146.434 15.1613 144.806 15.1613C143.178 15.1613 133.733 15.1613 133.733 15.1613C133.733 15.1613 125.774 15.3426 121.617 21.1049C117.456 26.8672 116.96 32.1812 116.96 36.4173C116.96 40.6534 117.456 47.2267 119.944 51.1857C122.432 55.1498 125.642 58.7059 134.638 58.7059C143.633 58.7059 146.303 54.5605 147.294 52.2687C148.285 49.9768 148.427 47.9469 148.427 46.9093C148.427 45.8717 148.427 38.1752 148.427 38.1752C148.427 38.1752 148.654 35.9237 147.072 34.2565C145.489 32.5892 143.229 32.4079 143.229 32.4079H136.852C136.852 32.4079 135.088 32.4986 134.638 34.6141C134.173 36.7346 133.273 40.0641 133.273 40.0641Z" fill="white"/>
</g>
<defs>
<clipPath id="clip0_506_756">
<rect width="172" height="75.7762" fill="white"/>
</clipPath>
</defs>
</svg>
