<svg width="20" height="20" viewBox="0 0 20 20" fill="none" xmlns="http://www.w3.org/2000/svg">
<path d="M6.61631 17.9548C6.38197 17.7204 6.25033 17.4025 6.25033 17.0711C6.25033 16.7396 6.38197 16.4217 6.61631 16.1873L12.8038 9.99982L6.61631 3.81232C6.38862 3.57656 6.26262 3.26081 6.26547 2.93306C6.26832 2.60532 6.39978 2.2918 6.63154 2.06004C6.8633 1.82828 7.17682 1.69682 7.50456 1.69397C7.83231 1.69113 8.14806 1.81712 8.38381 2.04482L15.4551 9.11607C15.6894 9.35048 15.821 9.66836 15.821 9.99982C15.821 10.3313 15.6894 10.6492 15.4551 10.8836L8.38381 17.9548C8.1494 18.1892 7.83152 18.3208 7.50006 18.3208C7.16861 18.3208 6.85072 18.1892 6.61631 17.9548Z" fill="#969696"/>
</svg>
