<svg width="18" height="18" viewBox="0 0 18 18" fill="none" xmlns="http://www.w3.org/2000/svg">
<path d="M13.7252 4.28248C13.6558 4.21296 13.5734 4.1578 13.4826 4.12016C13.3919 4.08252 13.2946 4.06315 13.1964 4.06315C13.0982 4.06315 13.0009 4.08252 12.9102 4.12016C12.8195 4.1578 12.7371 4.21296 12.6677 4.28248L9.00017 7.94248L5.33267 4.27498C5.26323 4.20555 5.1808 4.15047 5.09008 4.11289C4.99935 4.07531 4.90212 4.05597 4.80392 4.05597C4.70572 4.05597 4.60848 4.07531 4.51776 4.11289C4.42704 4.15047 4.3446 4.20555 4.27517 4.27498C4.20573 4.34442 4.15065 4.42685 4.11307 4.51758C4.07549 4.6083 4.05615 4.70554 4.05615 4.80373C4.05615 4.90193 4.07549 4.99917 4.11307 5.08989C4.15065 5.18062 4.20573 5.26305 4.27517 5.33248L7.94267 8.99998L4.27517 12.6675C4.20573 12.7369 4.15065 12.8194 4.11307 12.9101C4.07549 13.0008 4.05615 13.098 4.05615 13.1962C4.05615 13.2944 4.07549 13.3917 4.11307 13.4824C4.15065 13.5731 4.20573 13.6555 4.27517 13.725C4.3446 13.7944 4.42704 13.8495 4.51776 13.8871C4.60848 13.9247 4.70572 13.944 4.80392 13.944C4.90212 13.944 4.99935 13.9247 5.09008 13.8871C5.1808 13.8495 5.26323 13.7944 5.33267 13.725L9.00017 10.0575L12.6677 13.725C12.7371 13.7944 12.8195 13.8495 12.9103 13.8871C13.001 13.9247 13.0982 13.944 13.1964 13.944C13.2946 13.944 13.3919 13.9247 13.4826 13.8871C13.5733 13.8495 13.6557 13.7944 13.7252 13.725C13.7946 13.6555 13.8497 13.5731 13.8873 13.4824C13.9248 13.3917 13.9442 13.2944 13.9442 13.1962C13.9442 13.098 13.9248 13.0008 13.8873 12.9101C13.8497 12.8194 13.7946 12.7369 13.7252 12.6675L10.0577 8.99998L13.7252 5.33248C14.0102 5.04748 14.0102 4.56748 13.7252 4.28248Z" fill="#ffffff"/>
</svg>
