<svg width="26" height="26" viewBox="0 0 26 26" fill="none" xmlns="http://www.w3.org/2000/svg">
<path d="M15.1667 3.54144C15.1667 2.78202 14.5513 2.16669 13.7919 2.16669H12.2092C11.4487 2.16669 10.8333 2.78202 10.8333 3.54144C10.8333 4.1676 10.4043 4.70494 9.82041 4.9346C9.72833 4.97144 9.63625 5.01044 9.54633 5.04944C8.97108 5.2986 8.2875 5.22277 7.84333 4.77969C7.58554 4.52208 7.23602 4.37738 6.87158 4.37738C6.50714 4.37738 6.15762 4.52208 5.89983 4.77969L4.77966 5.89985C4.52206 6.15764 4.37735 6.50717 4.37735 6.8716C4.37735 7.23604 4.52206 7.58557 4.77966 7.84335C5.22383 8.28752 5.29966 8.97002 5.04833 9.54635C5.00884 9.63705 4.97092 9.72843 4.93458 9.82044C4.70491 10.4044 4.16758 10.8334 3.54141 10.8334C2.782 10.8334 2.16666 11.4487 2.16666 12.2081V13.7919C2.16666 14.5514 2.782 15.1667 3.54141 15.1667C4.16758 15.1667 4.70491 15.5957 4.93458 16.1796C4.97141 16.2717 5.01041 16.3638 5.04833 16.4537C5.29858 17.0289 5.22275 17.7125 4.77966 18.1567C4.52206 18.4145 4.37735 18.764 4.37735 19.1284C4.37735 19.4929 4.52206 19.8424 4.77966 20.1002L5.89983 21.2204C6.15762 21.478 6.50714 21.6227 6.87158 21.6227C7.23602 21.6227 7.58554 21.478 7.84333 21.2204C8.2875 20.7762 8.97 20.7004 9.54633 20.9506C9.63625 20.9907 9.72833 21.0286 9.82041 21.0654C10.4043 21.2951 10.8333 21.8324 10.8333 22.4586C10.8333 23.218 11.4487 23.8334 12.2081 23.8334H13.7919C14.5513 23.8334 15.1667 23.218 15.1667 22.4586C15.1667 21.8324 15.5957 21.2951 16.1796 21.0644C16.2717 21.0286 16.3637 20.9907 16.4537 20.9517C17.0289 20.7004 17.7125 20.7773 18.1556 21.2204C18.2832 21.3481 18.4348 21.4494 18.6016 21.5185C18.7685 21.5876 18.9473 21.6232 19.1279 21.6232C19.3085 21.6232 19.4873 21.5876 19.6541 21.5185C19.8209 21.4494 19.9725 21.3481 20.1002 21.2204L21.2203 20.1002C21.4779 19.8424 21.6226 19.4929 21.6226 19.1284C21.6226 18.764 21.4779 18.4145 21.2203 18.1567C20.7762 17.7125 20.7003 17.03 20.9506 16.4537C20.9907 16.3638 21.0286 16.2717 21.0654 16.1796C21.2951 15.5957 21.8324 15.1667 22.4586 15.1667C23.218 15.1667 23.8333 14.5514 23.8333 13.7919V12.2092C23.8333 11.4498 23.218 10.8344 22.4586 10.8344C21.8324 10.8344 21.2951 10.4054 21.0643 9.82152C21.028 9.7295 20.9901 9.63812 20.9506 9.54744C20.7014 8.97219 20.7772 8.2886 21.2203 7.84444C21.4779 7.58665 21.6226 7.23712 21.6226 6.87269C21.6226 6.50825 21.4779 6.15872 21.2203 5.90094L20.1002 4.78077C19.8424 4.52317 19.4928 4.37846 19.1284 4.37846C18.764 4.37846 18.4145 4.52317 18.1567 4.78077C17.7125 5.22494 17.03 5.30077 16.4537 5.05052C16.363 5.01066 16.2716 4.97238 16.1796 4.93569C15.5957 4.70494 15.1667 4.16652 15.1667 3.54144Z" stroke="white" stroke-width="2"/>
<path d="M17.3333 13C17.3333 14.1493 16.8768 15.2515 16.0641 16.0642C15.2515 16.8768 14.1493 17.3334 13 17.3334C11.8507 17.3334 10.7485 16.8768 9.93587 16.0642C9.12321 15.2515 8.66666 14.1493 8.66666 13C8.66666 11.8507 9.12321 10.7485 9.93587 9.93589C10.7485 9.12323 11.8507 8.66669 13 8.66669C14.1493 8.66669 15.2515 9.12323 16.0641 9.93589C16.8768 10.7485 17.3333 11.8507 17.3333 13Z" stroke="white" stroke-width="2"/>
</svg>
