<svg width="26" height="26" viewBox="0 0 26 26" fill="none" xmlns="http://www.w3.org/2000/svg">
<path d="M5.34068 4.25745C4.33315 5.26208 3.53407 6.45589 2.98934 7.7703C2.44461 9.08471 2.16498 10.4938 2.16651 11.9166C2.16651 14.9066 3.37984 17.6149 5.34068 19.5758L6.86818 18.0483C6.06062 17.245 5.42067 16.2894 4.9855 15.2368C4.55032 14.1842 4.32859 13.0556 4.33318 11.9166C4.33318 9.52245 5.29734 7.34495 6.86818 5.78495L5.34068 4.25745ZM20.659 4.25745L19.1315 5.78495C19.9382 6.5888 20.5776 7.54458 21.0128 8.59704C21.4479 9.6495 21.6701 10.7778 21.6665 11.9166C21.6665 14.3216 20.7023 16.4883 19.1315 18.0483L20.659 19.5758C21.6665 18.5711 22.4656 17.3773 23.0103 16.0629C23.5551 14.7485 23.8347 13.3394 23.8332 11.9166C23.8332 8.92661 22.6198 6.21828 20.659 4.25745ZM8.40651 7.32328C7.80179 7.92557 7.32205 8.64142 6.99484 9.42969C6.66763 10.218 6.49941 11.0631 6.49984 11.9166C6.49984 13.7041 7.22568 15.3291 8.40651 16.5099L9.93401 14.9824C9.53125 14.5801 9.21194 14.1021 8.99443 13.576C8.77691 13.0498 8.66547 12.4859 8.66651 11.9166C8.66651 10.7141 9.15401 9.63078 9.93401 8.85078L8.40651 7.32328ZM17.5932 7.32328L16.0657 8.85078C16.4684 9.25315 16.7877 9.73113 17.0053 10.2573C17.2228 10.7834 17.3342 11.3473 17.3332 11.9166C17.3332 13.1191 16.8457 14.2024 16.0657 14.9824L17.5932 16.5099C18.1979 15.9077 18.6776 15.1918 19.0048 14.4035C19.3321 13.6153 19.5003 12.7701 19.4998 11.9166C19.4998 10.1291 18.774 8.50411 17.5932 7.32328ZM12.9998 9.74995C12.4252 9.74995 11.8741 9.97822 11.4678 10.3845C11.0615 10.7909 10.8332 11.342 10.8332 11.9166C10.8332 12.4912 11.0615 13.0423 11.4678 13.4487C11.8741 13.855 12.4252 14.0833 12.9998 14.0833C13.5745 14.0833 14.1256 13.855 14.5319 13.4487C14.9382 13.0423 15.1665 12.4912 15.1665 11.9166C15.1665 11.342 14.9382 10.7909 14.5319 10.3845C14.1256 9.97822 13.5745 9.74995 12.9998 9.74995ZM11.9165 16.2499V20.5833H10.8332C10.5459 20.5833 10.2703 20.6974 10.0671 20.9006C9.86398 21.1037 9.74984 21.3793 9.74984 21.6666H2.16651V23.8333H9.74984C9.74984 24.1206 9.86398 24.3961 10.0671 24.5993C10.2703 24.8025 10.5459 24.9166 10.8332 24.9166H15.1665C15.4538 24.9166 15.7294 24.8025 15.9325 24.5993C16.1357 24.3961 16.2498 24.1206 16.2498 23.8333H23.8332V21.6666H16.2498C16.2498 21.3793 16.1357 21.1037 15.9325 20.9006C15.7294 20.6974 15.4538 20.5833 15.1665 20.5833H14.0832V16.2499H11.9165Z" fill="#F8F8F8"/>
</svg>
