<svg width="19" height="18" viewBox="0 0 19 18" fill="none" xmlns="http://www.w3.org/2000/svg">
<g clip-path="url(#clip0_506_772)">
<path fill-rule="evenodd" clip-rule="evenodd" d="M16.8768 3.83325C17.0877 4.04422 17.2062 4.33032 17.2062 4.62863C17.2062 4.92694 17.0877 5.21304 16.8768 5.424L8.44455 13.8563C8.33312 13.9677 8.20082 14.0561 8.05521 14.1165C7.90961 14.1768 7.75354 14.2078 7.59593 14.2078C7.43832 14.2078 7.28226 14.1768 7.13665 14.1165C6.99104 14.0561 6.85874 13.9677 6.7473 13.8563L2.5578 9.6675C2.45036 9.56373 2.36465 9.43959 2.30569 9.30233C2.24673 9.16508 2.2157 9.01746 2.2144 8.86808C2.2131 8.7187 2.24156 8.57056 2.29813 8.43231C2.3547 8.29405 2.43823 8.16844 2.54386 8.06281C2.64949 7.95718 2.7751 7.87365 2.91336 7.81708C3.05161 7.76051 3.19975 7.73205 3.34913 7.73335C3.49851 7.73464 3.64613 7.76568 3.78338 7.82464C3.92064 7.8836 4.04478 7.96931 4.14855 8.07675L7.59555 11.5238L15.2853 3.83325C15.3898 3.72871 15.5138 3.64578 15.6504 3.5892C15.7869 3.53262 15.9333 3.50349 16.0811 3.50349C16.2289 3.50349 16.3752 3.53262 16.5117 3.5892C16.6483 3.64578 16.7723 3.72871 16.8768 3.83325Z" fill="#FF0000"/>
</g>
<defs>
<clipPath id="clip0_506_772">
<rect width="18" height="18" fill="white" transform="translate(0.717285)"/>
</clipPath>
</defs>
</svg>
