<svg width="18" height="18" viewBox="0 0 18 18" fill="none" xmlns="http://www.w3.org/2000/svg">
<g clip-path="url(#clip0_733_383)">
<path d="M15.3 15.3H2.70002V2.70002H7.20002V0.900024H2.70002C2.22263 0.900024 1.7648 1.08967 1.42723 1.42723C1.08967 1.7648 0.900024 2.22263 0.900024 2.70002V15.3C0.900024 15.7774 1.08967 16.2353 1.42723 16.5728C1.7648 16.9104 2.22263 17.1 2.70002 17.1H15.3C15.7774 17.1 16.2353 16.9104 16.5728 16.5728C16.9104 16.2353 17.1 15.7774 17.1 15.3V10.8H15.3V15.3Z" fill="#F8F8F8"/>
<path d="M14.94 10.26L11.97 7.29001L17.1 2.16001L15.84 0.90001L10.71 6.03001L7.73998 3.06001L7.73998 10.26L14.94 10.26Z" fill="#F8F8F8"/>
</g>
<defs>
<clipPath id="clip0_733_383">
<rect width="18" height="18" fill="white"/>
</clipPath>
</defs>
</svg>
