<svg width="22" height="21" viewBox="0 0 22 21" fill="none" xmlns="http://www.w3.org/2000/svg">
<path d="M12.9316 14.4364L15.2294 12.1386L21.725 18.6343L19.4273 20.932L12.9316 14.4364ZM16.9584 8.83336C19.0492 8.83336 20.75 7.13252 20.75 5.04169C20.75 4.41336 20.5767 3.82836 20.3059 3.30836L17.3809 6.23336L15.7667 4.61919L18.6917 1.69419C18.1717 1.42336 17.5867 1.25002 16.9584 1.25002C14.8675 1.25002 13.1667 2.95086 13.1667 5.04169C13.1667 5.48586 13.2534 5.90836 13.3942 6.29836L11.39 8.30252L9.46169 6.37419L10.2309 5.60502L8.70336 4.07752L11 1.78086C10.3906 1.17224 9.56461 0.830383 8.70336 0.830383C7.84211 0.830383 7.01607 1.17224 6.40669 1.78086L2.57169 5.61586L4.09919 7.14336H1.04419L0.275024 7.91252L4.11002 11.7475L4.87919 10.9784V7.91252L6.40669 9.44002L7.17586 8.67086L9.10419 10.5992L1.07669 18.6267L3.37336 20.9234L15.7017 8.60586C16.0917 8.74669 16.5142 8.83336 16.9584 8.83336Z" fill="white"/>
</svg>
