<svg width="22" height="22" viewBox="0 0 22 22" fill="none" xmlns="http://www.w3.org/2000/svg">
<path d="M2.5235 12.2186L4.81517 12.2287C4.99 12.2286 5.1583 12.2951 5.28582 12.4147C5.41333 12.5343 5.49048 12.698 5.50158 12.8725C5.51267 13.047 5.45688 13.2192 5.34554 13.354C5.2342 13.4888 5.07569 13.5761 4.90225 13.5982L4.80875 13.6037L3.20825 13.5954V18.638L4.81242 18.6389C4.9784 18.6391 5.13869 18.6994 5.2637 18.8086C5.38872 18.9178 5.47001 19.0685 5.49259 19.2329L5.49992 19.3264C5.49991 19.4925 5.43975 19.6531 5.33055 19.7783C5.22135 19.9035 5.07051 19.9849 4.90592 20.0075L4.81242 20.0139H2.52075C2.35478 20.0137 2.19448 19.9534 2.06947 19.8442C1.94446 19.7351 1.86316 19.5843 1.84059 19.4199L1.83325 19.3264V12.9061C1.83313 12.7394 1.89358 12.5783 2.00336 12.4528C2.11313 12.3274 2.26475 12.2461 2.43 12.2241L2.5235 12.2186ZM19.4745 17.2639C19.6487 17.264 19.8164 17.3301 19.9436 17.4491C20.0709 17.568 20.1483 17.7308 20.1602 17.9045C20.1721 18.0783 20.1175 18.2501 20.0076 18.3853C19.8977 18.5204 19.7406 18.6087 19.568 18.6325L19.4745 18.6389H7.10225C6.92814 18.6386 6.76063 18.5723 6.63352 18.4533C6.50642 18.3343 6.42919 18.1715 6.41744 17.9978C6.40569 17.8241 6.46029 17.6524 6.57021 17.5174C6.68013 17.3823 6.83718 17.2941 7.00967 17.2703L7.10225 17.2639H19.4745ZM19.4745 13.5972C19.6487 13.5973 19.8164 13.6635 19.9436 13.7824C20.0709 13.9013 20.1483 14.0641 20.1602 14.2379C20.1721 14.4117 20.1175 14.5835 20.0076 14.7186C19.8977 14.8537 19.7406 14.9421 19.568 14.9658L19.4745 14.9722H7.10225C6.92814 14.972 6.76063 14.9056 6.63352 14.7866C6.50642 14.6676 6.42919 14.5049 6.41744 14.3311C6.40569 14.1574 6.46029 13.9857 6.57021 13.8507C6.68013 13.7157 6.83718 13.6274 7.00967 13.6037L7.10225 13.5972H19.4745ZM2.5235 2.29169L4.81517 2.30177C4.99 2.3017 5.1583 2.36823 5.28582 2.48785C5.41333 2.60746 5.49048 2.77116 5.50158 2.94564C5.51267 3.12012 5.45688 3.29228 5.34554 3.42708C5.2342 3.56188 5.07569 3.6492 4.90225 3.67127L4.80875 3.67677L3.20825 3.66944V8.70377H4.81242C4.9784 8.704 5.13869 8.76426 5.2637 8.87344C5.38872 8.98262 5.47001 9.13334 5.49259 9.29777L5.499 9.39127C5.499 9.5574 5.43883 9.71792 5.32963 9.84312C5.22044 9.96833 5.06959 10.0498 4.905 10.0724L4.8115 10.0788H2.51984C2.35386 10.0785 2.19357 10.0183 2.06855 9.9091C1.94354 9.79992 1.86224 9.64921 1.83967 9.48477L1.83325 9.39127V2.97919C1.83313 2.81248 1.89358 2.65141 2.00336 2.52595C2.11313 2.40049 2.26475 2.31919 2.43 2.29719L2.5235 2.29169ZM19.4745 7.33702C19.6487 7.33707 19.8164 7.40324 19.9436 7.52216C20.0709 7.64108 20.1483 7.80388 20.1602 7.97766C20.1721 8.15144 20.1175 8.32325 20.0076 8.45838C19.8977 8.5935 19.7406 8.68186 19.568 8.7056L19.4745 8.71202H7.10225C6.92814 8.71174 6.76063 8.6454 6.63352 8.52641C6.50642 8.40742 6.42919 8.24464 6.41744 8.07092C6.40569 7.89721 6.46029 7.72551 6.57021 7.59048C6.68013 7.45546 6.83718 7.36717 7.00967 7.34344L7.10225 7.33702H19.4745ZM19.4791 3.67035C19.6533 3.67041 19.8209 3.73658 19.9482 3.8555C20.0755 3.97441 20.1529 4.13721 20.1648 4.31099C20.1767 4.48478 20.1221 4.65659 20.0122 4.79171C19.9023 4.92683 19.7451 5.01519 19.5726 5.03894L19.4791 5.04535H7.10775C6.93356 5.0453 6.76589 4.97913 6.63861 4.86021C6.51133 4.74129 6.43393 4.5785 6.42206 4.40471C6.41019 4.23093 6.46472 4.05912 6.57465 3.924C6.68457 3.78887 6.84169 3.70051 7.01425 3.67677L7.10775 3.67035H19.4791Z" fill="#F8F8F8"/>
</svg>
