<svg width="20" height="20" viewBox="0 0 20 20" fill="none" xmlns="http://www.w3.org/2000/svg">
<path d="M13.3837 2.04518C13.618 2.27959 13.7497 2.59748 13.7497 2.92893C13.7497 3.26039 13.618 3.57827 13.3837 3.81268L7.19619 10.0002L13.3837 16.1877C13.6114 16.4234 13.7374 16.7392 13.7345 17.0669C13.7317 17.3947 13.6002 17.7082 13.3685 17.94C13.1367 18.1717 12.8232 18.3032 12.4954 18.306C12.1677 18.3089 11.8519 18.1829 11.6162 17.9552L4.54494 10.8839C4.3106 10.6495 4.17896 10.3316 4.17896 10.0002C4.17896 9.66873 4.3106 9.35084 4.54494 9.11643L11.6162 2.04518C11.8506 1.81084 12.1685 1.6792 12.4999 1.6792C12.8314 1.6792 13.1493 1.81084 13.3837 2.04518Z" fill="#969696"/>
</svg>
