<svg width="26" height="26" viewBox="0 0 26 26" fill="none" xmlns="http://www.w3.org/2000/svg">
<path d="M22.75 13.8125V17.875H3.25V4.875H11.375V3.25H3.25C2.81902 3.25 2.4057 3.4212 2.10095 3.72595C1.7962 4.0307 1.625 4.44402 1.625 4.875V17.875C1.625 18.306 1.7962 18.7193 2.10095 19.024C2.4057 19.3288 2.81902 19.5 3.25 19.5H9.75V22.75H6.5V24.375H19.5V22.75H16.25V19.5H22.75C23.181 19.5 23.5943 19.3288 23.899 19.024C24.2038 18.7193 24.375 18.306 24.375 17.875V13.8125H22.75ZM14.625 22.75H11.375V19.5H14.625V22.75Z" fill="#F8F8F8"/>
<path d="M24.375 8.125V6.5H22.6679C22.5632 5.99139 22.3612 5.50778 22.0732 5.07569L23.2838 3.86506L22.1349 2.71619L20.9243 3.92681C20.4922 3.63879 20.0086 3.43685 19.5 3.33206V1.625H17.875V3.33206C17.3664 3.43685 16.8828 3.63879 16.4507 3.92681L15.2401 2.71619L14.0912 3.86506L15.3018 5.07569C15.0138 5.50778 14.8118 5.99139 14.7071 6.5H13V8.125H14.7071C14.8118 8.63361 15.0138 9.11722 15.3018 9.54931L14.0912 10.7599L15.2401 11.9088L16.4507 10.6982C16.8828 10.9862 17.3664 11.1882 17.875 11.2929V13H19.5V11.2929C20.0086 11.1882 20.4922 10.9862 20.9243 10.6982L22.1349 11.9088L23.2838 10.7599L22.0732 9.54931C22.3612 9.11722 22.5632 8.63361 22.6679 8.125H24.375ZM18.6875 9.75C18.2054 9.75 17.7341 9.60704 17.3333 9.33921C16.9325 9.07137 16.62 8.69069 16.4355 8.24529C16.2511 7.7999 16.2028 7.3098 16.2968 6.83697C16.3909 6.36414 16.623 5.92982 16.9639 5.58893C17.3048 5.24804 17.7391 5.01589 18.212 4.92184C18.6848 4.82778 19.1749 4.87606 19.6203 5.06054C20.0657 5.24503 20.4464 5.55745 20.7142 5.9583C20.982 6.35914 21.125 6.83041 21.125 7.3125C21.1244 7.95877 20.8673 8.57838 20.4104 9.03536C19.9534 9.49234 19.3338 9.74935 18.6875 9.75Z" fill="#F8F8F8"/>
</svg>
