<svg width="30" height="30" viewBox="0 0 30 30" fill="none" xmlns="http://www.w3.org/2000/svg">
<path d="M11.7705 12.085C11.3456 11.6789 11.0198 11.2115 10.7932 10.6827C10.5666 10.1539 10.4485 9.59207 10.4391 8.99717C10.4391 8.40227 10.5524 7.84042 10.779 7.31161C11.0057 6.78281 11.3362 6.31539 11.7705 5.90935L10.5099 4.60623C9.90557 5.19169 9.44287 5.85741 9.12181 6.6034C8.80076 7.34939 8.6355 8.14731 8.62606 8.99717C8.62606 9.83758 8.78659 10.6308 9.10765 11.3768C9.42871 12.1228 9.89613 12.7932 10.5099 13.3881L11.7705 12.085ZM7.98867 2C7.51652 2.45326 7.09632 2.94901 6.72804 3.48725C6.35977 4.0255 6.04344 4.59207 5.77904 5.18697C5.51464 5.78187 5.32106 6.40038 5.1983 7.04249C5.07554 7.68461 5.00944 8.33617 5 8.99717C5 9.65817 5.0661 10.3097 5.1983 10.9518C5.3305 11.594 5.52408 12.2125 5.77904 12.8074C6.03399 13.4023 6.34561 13.9688 6.71388 14.5071C7.08215 15.0453 7.50708 15.5411 7.98867 15.9943L9.24929 14.6912C8.46553 13.9358 7.86591 13.0718 7.45042 12.0992C7.03494 11.1265 6.82247 10.0925 6.81303 8.99717C6.81303 7.91124 7.02077 6.88196 7.43626 5.90935C7.85175 4.93673 8.45609 4.06799 9.24929 3.30312L7.98867 2ZM19.4901 13.3881C20.0944 12.8026 20.5571 12.1369 20.8782 11.3909C21.1992 10.6449 21.3645 9.84703 21.3739 8.99717C21.3739 8.15675 21.2134 7.36355 20.8924 6.61756C20.5713 5.87158 20.1039 5.20113 19.4901 4.60623L18.2295 5.90935C18.6544 6.31539 18.9802 6.78281 19.2068 7.31161C19.4334 7.84042 19.5515 8.40227 19.5609 8.99717C19.5609 9.59207 19.4476 10.1539 19.221 10.6827C18.9943 11.2115 18.6638 11.6789 18.2295 12.085L19.4901 13.3881ZM22.0113 15.9943C22.4835 15.5411 22.9037 15.0453 23.272 14.5071C23.6402 13.9688 23.9566 13.4023 24.221 12.8074C24.4854 12.2125 24.6789 11.594 24.8017 10.9518C24.9245 10.3097 24.9906 9.65817 25 8.99717C25 8.33617 24.9339 7.68461 24.8017 7.04249C24.6695 6.40038 24.4759 5.78187 24.221 5.18697C23.966 4.59207 23.6544 4.0255 23.2861 3.48725C22.9178 2.94901 22.4929 2.45326 22.0113 2L20.7507 3.30312C21.5345 4.05855 22.1341 4.92257 22.5496 5.89518C22.9651 6.8678 23.1775 7.90179 23.187 8.99717C23.187 10.0831 22.9792 11.1124 22.5637 12.085C22.1483 13.0576 21.5439 13.9263 20.7507 14.6912L22.0113 15.9943ZM12.2805 8.99717C12.2805 9.4221 12.3702 9.8187 12.5496 10.187C12.729 10.5552 12.9887 10.8716 13.3286 11.136L7.70538 28.034H9.6034L10.8215 24.4079H19.1785L20.3966 28.034H22.2946L16.6714 11.136C17.0019 10.881 17.2568 10.5694 17.4363 10.2011C17.6157 9.83286 17.7101 9.43154 17.7195 8.99717C17.7195 8.61945 17.6487 8.26534 17.5071 7.93484C17.3654 7.60434 17.1719 7.31634 16.9263 7.07082C16.6808 6.82531 16.3928 6.63173 16.0623 6.49009C15.7318 6.34844 15.3777 6.27762 15 6.27762C14.6223 6.27762 14.2682 6.34844 13.9377 6.49009C13.6072 6.63173 13.3192 6.82531 13.0737 7.07082C12.8281 7.31634 12.6346 7.60434 12.4929 7.93484C12.3513 8.26534 12.2805 8.61945 12.2805 8.99717ZM15 8.09065C15.2455 8.09065 15.458 8.18036 15.6374 8.35977C15.8168 8.53919 15.9065 8.75165 15.9065 8.99717C15.9065 9.24268 15.8168 9.45515 15.6374 9.63456C15.458 9.81398 15.2455 9.90368 15 9.90368C14.7545 9.90368 14.542 9.81398 14.3626 9.63456C14.1832 9.45515 14.0935 9.24268 14.0935 8.99717C14.0935 8.75165 14.1832 8.53919 14.3626 8.35977C14.542 8.18036 14.7545 8.09065 15 8.09065ZM15 11.8584L16.7705 17.1558H13.2295L15 11.8584ZM11.4164 22.5949L12.6346 18.9688H17.3654L18.5836 22.5949H11.4164Z" fill="white"/>
</svg>
