<svg width="12" height="7" viewBox="0 0 12 7" fill="none" xmlns="http://www.w3.org/2000/svg">
<path d="M10.2873 0.295591L6.00085 4.59205L1.71439 0.295591C1.6215 0.201939 1.51099 0.127607 1.38923 0.0768798C1.26747 0.026153 1.13687 3.59709e-05 1.00497 3.59594e-05C0.873067 3.59479e-05 0.742469 0.0261529 0.62071 0.0768798C0.498951 0.127607 0.388442 0.201939 0.295556 0.295591C0.201905 0.388477 0.12757 0.498987 0.0768433 0.620746C0.0261164 0.742505 2.63836e-07 0.873103 2.52304e-07 1.00501C2.40773e-07 1.13691 0.0261164 1.26751 0.0768433 1.38927C0.12757 1.51103 0.201904 1.62154 0.295556 1.71442L5.29144 6.7103C5.38432 6.80396 5.49483 6.87829 5.61659 6.92902C5.73835 6.97974 5.86895 7.00586 6.00085 7.00586C6.13276 7.00586 6.26335 6.97974 6.38511 6.92902C6.50687 6.87829 6.61738 6.80396 6.71027 6.7103L11.7062 1.71442C11.7993 1.62126 11.8732 1.51066 11.9236 1.38894C11.974 1.26722 12 1.13676 12 1.00501C12 0.738925 11.8943 0.48374 11.7062 0.295592C11.518 0.107443 11.2628 0.0017429 10.9967 0.00174288C10.7307 0.00174285 10.4755 0.107443 10.2873 0.295591Z" fill="black"/>
</svg>
