<svg width="20" height="20" viewBox="0 0 20 20" fill="none" xmlns="http://www.w3.org/2000/svg">
<path d="M4.37481 15.6249C4.37481 15.7907 4.30896 15.9497 4.19175 16.0669C4.07454 16.1841 3.91557 16.2499 3.74981 16.2499C3.58405 16.2499 3.42508 16.1841 3.30787 16.0669C3.19066 15.9497 3.12481 15.7907 3.12481 15.6249V4.63369L1.69231 6.06744C1.6342 6.12555 1.56522 6.17165 1.48929 6.2031C1.41337 6.23455 1.33199 6.25073 1.24981 6.25073C1.16763 6.25073 1.08626 6.23455 1.01033 6.2031C0.934409 6.17165 0.865423 6.12555 0.807313 6.06744C0.749203 6.00933 0.703108 5.94035 0.671659 5.86442C0.64021 5.7885 0.624023 5.70712 0.624023 5.62494C0.624023 5.54276 0.64021 5.46139 0.671659 5.38546C0.703108 5.30954 0.749203 5.24055 0.807313 5.18244L3.30731 2.68369L3.31606 2.67494C3.43387 2.56142 3.5915 2.49862 3.75509 2.50002C3.91869 2.50143 4.07522 2.56692 4.19106 2.68244L6.69106 5.18244C6.74917 5.24047 6.79528 5.30938 6.82676 5.38522C6.85824 5.46107 6.87448 5.54238 6.87454 5.6245C6.87459 5.70662 6.85848 5.78795 6.8271 5.86384C6.79573 5.93974 6.74972 6.00871 6.69169 6.06682C6.63366 6.12493 6.56475 6.17104 6.48891 6.20252C6.41306 6.234 6.33175 6.25023 6.24963 6.25029C6.16751 6.25035 6.08618 6.23423 6.01029 6.20286C5.93439 6.17148 5.86542 6.12547 5.80731 6.06744L4.37481 4.63369V15.6249ZM8.74981 4.37494C8.74981 4.20918 8.81566 4.05021 8.93287 3.933C9.05008 3.81579 9.20905 3.74994 9.37481 3.74994H18.1248C18.2906 3.74994 18.4495 3.81579 18.5668 3.933C18.684 4.05021 18.7498 4.20918 18.7498 4.37494C18.7498 4.5407 18.684 4.69967 18.5668 4.81688C18.4495 4.93409 18.2906 4.99994 18.1248 4.99994H9.37481C9.20905 4.99994 9.05008 4.93409 8.93287 4.81688C8.81566 4.69967 8.74981 4.5407 8.74981 4.37494ZM9.37481 7.49994C9.20905 7.49994 9.05008 7.56579 8.93287 7.683C8.81566 7.80021 8.74981 7.95918 8.74981 8.12494C8.74981 8.2907 8.81566 8.44967 8.93287 8.56688C9.05008 8.68409 9.20905 8.74994 9.37481 8.74994H15.6248C15.7906 8.74994 15.9495 8.68409 16.0668 8.56688C16.184 8.44967 16.2498 8.2907 16.2498 8.12494C16.2498 7.95918 16.184 7.80021 16.0668 7.683C15.9495 7.56579 15.7906 7.49994 15.6248 7.49994H9.37481ZM9.37481 11.2499C9.20905 11.2499 9.05008 11.3158 8.93287 11.433C8.81566 11.5502 8.74981 11.7092 8.74981 11.8749C8.74981 12.0407 8.81566 12.1997 8.93287 12.3169C9.05008 12.4341 9.20905 12.4999 9.37481 12.4999H13.1248C13.2906 12.4999 13.4495 12.4341 13.5668 12.3169C13.684 12.1997 13.7498 12.0407 13.7498 11.8749C13.7498 11.7092 13.684 11.5502 13.5668 11.433C13.4495 11.3158 13.2906 11.2499 13.1248 11.2499H9.37481ZM9.37481 14.9999C9.20905 14.9999 9.05008 15.0658 8.93287 15.183C8.81566 15.3002 8.74981 15.4592 8.74981 15.6249C8.74981 15.7907 8.81566 15.9497 8.93287 16.0669C9.05008 16.1841 9.20905 16.2499 9.37481 16.2499H10.6248C10.7906 16.2499 10.9495 16.1841 11.0668 16.0669C11.184 15.9497 11.2498 15.7907 11.2498 15.6249C11.2498 15.4592 11.184 15.3002 11.0668 15.183C10.9495 15.0658 10.7906 14.9999 10.6248 14.9999H9.37481Z" fill="black"/>
</svg>
