<svg width="30" height="24" viewBox="0 0 30 24" fill="none" xmlns="http://www.w3.org/2000/svg">
<path d="M18.75 7.94126H18.7625M15.625 20.8457H7.5C6.50544 20.8457 5.55161 20.5319 4.84835 19.9735C4.14509 19.415 3.75 18.6575 3.75 17.8677V5.95597C3.75 5.16617 4.14509 4.40872 4.84835 3.85025C5.55161 3.29177 6.50544 2.97803 7.5 2.97803H22.5C23.4946 2.97803 24.4484 3.29177 25.1517 3.85025C25.8549 4.40872 26.25 5.16617 26.25 5.95597V12.4082" stroke="#F8F8F8" stroke-width="2" stroke-linecap="round" stroke-linejoin="round"/>
<path d="M3.75 15.8825L10 10.9192C11.16 10.0328 12.59 10.0328 13.75 10.9192L18.75 14.8898" stroke="#F8F8F8" stroke-width="2" stroke-linecap="round" stroke-linejoin="round"/>
<path d="M17.5 13.8972L18.75 12.9045C19.5662 12.2801 20.5162 12.0955 21.4125 12.3496M23.75 15.8825V21.8383M23.75 21.8383L27.5 18.8604M23.75 21.8383L20 18.8604" stroke="#F8F8F8" stroke-width="2" stroke-linecap="round" stroke-linejoin="round"/>
</svg>
