<svg width="20" height="20" viewBox="0 0 20 20" fill="none" xmlns="http://www.w3.org/2000/svg">
<g clip-path="url(#clip0_1234_31)">
<path d="M19.5187 11.085C19.5581 10.7287 19.5831 10.3675 19.5831 10C19.5831 9.6325 19.5581 9.27125 19.5181 8.91437L16.7819 7.94125C16.6456 7.49375 16.4669 7.06625 16.2506 6.66L17.4956 4.04C17.0425 3.47178 16.5272 2.95607 15.9594 2.5025L13.3394 3.75C12.931 3.53079 12.5018 3.35283 12.0581 3.21875L11.0856 0.482495C10.7287 0.442495 10.3675 0.41687 10 0.41687C9.6325 0.41687 9.27124 0.44187 8.91437 0.482495L7.94187 3.21875C7.49437 3.35437 7.06687 3.5325 6.66062 3.75L4.04 2.5025C3.47125 2.95562 2.95625 3.47125 2.5025 4.04L3.75 6.65875C3.5325 7.065 3.35437 7.49312 3.21875 7.94L0.482495 8.915C0.442495 9.27125 0.41687 9.63375 0.41687 10.0006C0.41687 10.3675 0.44187 10.7287 0.482495 11.0856L3.21875 12.0594C3.35437 12.5062 3.5325 12.9344 3.75 13.3406L2.50312 15.9606C2.95625 16.5294 3.47187 17.0437 4.04062 17.4969L6.65875 16.25C7.065 16.4675 7.49312 16.6462 7.94 16.7825L8.91375 19.5181C9.27 19.5575 9.63124 19.5825 9.99937 19.5825C10.3669 19.5825 10.7275 19.5575 11.0844 19.5175L12.0581 16.7812C12.505 16.645 12.9331 16.4662 13.3394 16.25L15.9594 17.495C16.5281 17.0419 17.0425 16.5262 17.4956 15.9587L16.25 13.3394C16.4675 12.935 16.6462 12.5056 16.7825 12.0581L19.5187 11.085ZM10 13.0437C9.6002 13.0438 9.20431 12.9652 8.83492 12.8122C8.46552 12.6593 8.12987 12.4352 7.84711 12.1525C7.27607 11.5817 6.95516 10.8074 6.955 10C6.95483 9.19258 7.27542 8.41816 7.84623 7.84711C8.41704 7.27607 9.19133 6.95516 9.99875 6.955C10.8062 6.95483 11.5806 7.27542 12.1516 7.84623C12.7227 8.41704 13.0436 9.19133 13.0437 9.99875C13.0439 10.8062 12.7233 11.5806 12.1525 12.1516C11.5817 12.7227 10.8074 13.0436 10 13.0437Z" fill="#F8F8F8"/>
</g>
<defs>
<clipPath id="clip0_1234_31">
<rect width="20" height="20" fill="white"/>
</clipPath>
</defs>
</svg>
