<svg width="12" height="10" viewBox="0 0 12 10" fill="none" xmlns="http://www.w3.org/2000/svg">
<path fill-rule="evenodd" clip-rule="evenodd" d="M11.5684 0.407378C11.7325 0.594905 11.8246 0.849214 11.8246 1.11438C11.8246 1.37954 11.7325 1.63385 11.5684 1.82138L5.01002 9.31671C4.92335 9.41579 4.82045 9.49438 4.7072 9.548C4.59395 9.60162 4.47256 9.62922 4.34998 9.62922C4.22739 9.62922 4.10601 9.60162 3.99276 9.548C3.8795 9.49438 3.7766 9.41579 3.68993 9.31671L0.431434 5.59338C0.347862 5.50113 0.281203 5.39079 0.235345 5.26878C0.189487 5.14678 0.165349 5.01556 0.16434 4.88278C0.16333 4.75 0.185469 4.61832 0.229465 4.49542C0.273461 4.37253 0.338432 4.26088 0.420588 4.16698C0.502744 4.07309 0.60044 3.99884 0.707974 3.94856C0.815508 3.89828 0.930728 3.87297 1.04691 3.87413C1.16309 3.87528 1.27791 3.90287 1.38466 3.95528C1.49142 4.00769 1.58797 4.08387 1.66868 4.17938L4.34968 7.24338L10.3306 0.407378C10.4119 0.314451 10.5083 0.240734 10.6145 0.19044C10.7207 0.140145 10.8346 0.114258 10.9495 0.114258C11.0645 0.114258 11.1783 0.140145 11.2845 0.19044C11.3907 0.240734 11.4872 0.314451 11.5684 0.407378Z" fill="#777"/>
</svg>
