<svg width="22" height="22" viewBox="0 0 22 22" fill="none" xmlns="http://www.w3.org/2000/svg">
<path d="M11 0C6.3635 0 1.375 1.39769 1.375 4.46875V17.5312C1.375 20.6009 6.3635 22 11 22C15.6358 22 20.625 20.6009 20.625 17.5312V4.46875C20.625 1.39769 15.6351 0 11 0ZM19.25 17.5312C19.25 19.239 15.5561 20.625 11 20.625C6.44325 20.625 2.75 19.239 2.75 17.5312V14.9627C4.17037 16.4264 7.59688 17.1875 11 17.1875C14.4031 17.1875 17.8296 16.4264 19.25 14.9627V17.5312ZM19.25 13.4062H19.2473C19.2473 13.4131 19.25 13.4207 19.25 13.4276C19.25 15.125 15.5561 16.5 11 16.5C6.44394 16.5 2.75 15.125 2.75 13.4276C2.75 13.4207 2.75275 13.4131 2.75275 13.4062H2.75V10.8377C4.17037 12.3014 7.59688 13.0625 11 13.0625C14.4031 13.0625 17.8296 12.3014 19.25 10.8377V13.4062ZM19.25 9.28125H19.2473C19.2473 9.28812 19.25 9.29569 19.25 9.30256C19.25 11 15.5561 12.375 11 12.375C6.44394 12.375 2.75 11 2.75 9.30256C2.75 9.29569 2.75275 9.28812 2.75275 9.28125H2.75V6.919C4.55194 8.29194 7.85469 8.9375 11 8.9375C14.1453 8.9375 17.4481 8.29194 19.25 6.919V9.28125ZM11 7.5625C6.44325 7.5625 2.75 6.1765 2.75 4.46875C2.75 2.75962 6.44325 1.375 11 1.375C15.5561 1.375 19.25 2.75962 19.25 4.46875C19.25 6.1765 15.5561 7.5625 11 7.5625Z" fill="white"/>
<path d="M17.1875 18.5625C17.5672 18.5625 17.875 18.2547 17.875 17.875C17.875 17.4953 17.5672 17.1875 17.1875 17.1875C16.8078 17.1875 16.5 17.4953 16.5 17.875C16.5 18.2547 16.8078 18.5625 17.1875 18.5625Z" fill="white"/>
<path d="M17.1875 14.4375C17.5672 14.4375 17.875 14.1297 17.875 13.75C17.875 13.3703 17.5672 13.0625 17.1875 13.0625C16.8078 13.0625 16.5 13.3703 16.5 13.75C16.5 14.1297 16.8078 14.4375 17.1875 14.4375Z" fill="white"/>
<path d="M17.1875 10.3125C17.5672 10.3125 17.875 10.0047 17.875 9.625C17.875 9.2453 17.5672 8.9375 17.1875 8.9375C16.8078 8.9375 16.5 9.2453 16.5 9.625C16.5 10.0047 16.8078 10.3125 17.1875 10.3125Z" fill="white"/>
</svg>
