<svg width="24" height="24" viewBox="0 0 24 24" fill="none" xmlns="http://www.w3.org/2000/svg">
<path fill-rule="evenodd" clip-rule="evenodd" d="M20.625 5.25C21.1223 5.25 21.5992 5.05246 21.9508 4.70083C22.3025 4.34919 22.5 3.87228 22.5 3.375C22.5 2.87772 22.3025 2.40081 21.9508 2.04917C21.5992 1.69754 21.1223 1.5 20.625 1.5C20.1277 1.5 19.6508 1.69754 19.2992 2.04917C18.9475 2.40081 18.75 2.87772 18.75 3.375C18.75 3.87228 18.9475 4.34919 19.2992 4.70083C19.6508 5.05246 20.1277 5.25 20.625 5.25ZM14.25 12C14.25 12.5967 14.0129 13.169 13.591 13.591C13.169 14.0129 12.5967 14.25 12 14.25C11.4033 14.25 10.831 14.0129 10.409 13.591C9.98705 13.169 9.75 12.5967 9.75 12C9.75 11.4033 9.98705 10.831 10.409 10.409C10.831 9.98705 11.4033 9.75 12 9.75C12.5967 9.75 13.169 9.98705 13.591 10.409C14.0129 10.831 14.25 11.4033 14.25 12ZM12 16.5C12.9976 16.4998 13.9669 16.1683 14.7557 15.5574C15.5444 14.9465 16.1078 14.0909 16.3575 13.125H19.125C19.2315 13.2675 19.3575 13.3935 19.5 13.5V19.125C19.1852 19.3611 18.9526 19.6903 18.8353 20.0659C18.7179 20.4416 18.7218 20.8446 18.8462 21.2179C18.9707 21.5913 19.2094 21.916 19.5287 22.1461C19.8479 22.3762 20.2315 22.5 20.625 22.5C21.0185 22.5 21.4021 22.3762 21.7213 22.1461C22.0406 21.916 22.2793 21.5913 22.4038 21.2179C22.5282 20.8446 22.5321 20.4416 22.4147 20.0659C22.2974 19.6903 22.0648 19.3611 21.75 19.125V13.5C21.9649 13.3388 22.1427 13.1333 22.2713 12.8975C22.3998 12.6616 22.4762 12.4009 22.4953 12.1329C22.5143 11.865 22.4756 11.596 22.3816 11.3444C22.2877 11.0927 22.1408 10.8641 21.9508 10.6742C21.7609 10.4842 21.5323 10.3373 21.2806 10.2434C21.029 10.1494 20.76 10.1107 20.4921 10.1297C20.2241 10.1488 19.9634 10.2252 19.7275 10.3537C19.4917 10.4823 19.2862 10.6601 19.125 10.875H16.3575C16.1558 10.0969 15.7498 9.38692 15.1814 8.81856C14.6131 8.2502 13.9031 7.84415 13.125 7.6425V4.875C13.3399 4.71382 13.5177 4.50834 13.6463 4.27248C13.7748 4.03662 13.8512 3.77588 13.8703 3.50792C13.8893 3.23996 13.8506 2.97104 13.7566 2.71936C13.6627 2.46768 13.5158 2.23913 13.3258 2.04917C13.1359 1.85922 12.9073 1.7123 12.6556 1.61837C12.404 1.52443 12.135 1.48567 11.8671 1.50472C11.5991 1.52376 11.3384 1.60016 11.1025 1.72874C10.8667 1.85733 10.6612 2.03509 10.5 2.25H4.875C4.63888 1.93518 4.30969 1.70263 3.93406 1.58529C3.55843 1.46795 3.15541 1.47177 2.78207 1.59622C2.40874 1.72066 2.08402 1.95942 1.85392 2.27867C1.62382 2.59792 1.5 2.98147 1.5 3.375C1.5 3.76853 1.62382 4.15208 1.85392 4.47133C2.08402 4.79058 2.40874 5.02934 2.78207 5.15378C3.15541 5.27823 3.55843 5.28205 3.93406 5.16471C4.30969 5.04738 4.63888 4.81482 4.875 4.5H10.5C10.6065 4.6425 10.7325 4.7685 10.875 4.875V7.6425C9.81647 7.91836 8.89461 8.57022 8.28169 9.47626C7.66877 10.3823 7.40674 11.4805 7.54457 12.5657C7.6824 13.6509 8.21065 14.6487 9.03061 15.3728C9.85057 16.0968 10.9061 16.4975 12 16.5ZM3.375 22.5C3.87228 22.5 4.34919 22.3025 4.70083 21.9508C5.05246 21.5992 5.25 21.1223 5.25 20.625C5.25 20.1277 5.05246 19.6508 4.70083 19.2992C4.34919 18.9475 3.87228 18.75 3.375 18.75C2.87772 18.75 2.40081 18.9475 2.04917 19.2992C1.69754 19.6508 1.5 20.1277 1.5 20.625C1.5 21.1223 1.69754 21.5992 2.04917 21.9508C2.40081 22.3025 2.87772 22.5 3.375 22.5ZM13.875 20.625C13.875 21.1223 13.6775 21.5992 13.3258 21.9508C12.9742 22.3025 12.4973 22.5 12 22.5C11.5027 22.5 11.0258 22.3025 10.6742 21.9508C10.3225 21.5992 10.125 21.1223 10.125 20.625C10.125 20.1277 10.3225 19.6508 10.6742 19.2992C11.0258 18.9475 11.5027 18.75 12 18.75C12.4973 18.75 12.9742 18.9475 13.3258 19.2992C13.6775 19.6508 13.875 20.1277 13.875 20.625ZM5.25 12C5.25 12.4973 5.05246 12.9742 4.70083 13.3258C4.34919 13.6775 3.87228 13.875 3.375 13.875C2.87772 13.875 2.40081 13.6775 2.04917 13.3258C1.69754 12.9742 1.5 12.4973 1.5 12C1.5 11.5027 1.69754 11.0258 2.04917 10.6742C2.40081 10.3225 2.87772 10.125 3.375 10.125C3.87228 10.125 4.34919 10.3225 4.70083 10.6742C5.05246 11.0258 5.25 11.5027 5.25 12Z" fill="#F8F8F8"/>
</svg>
