<svg width="29" height="29" viewBox="0 0 29 29" fill="none" xmlns="http://www.w3.org/2000/svg">
<path d="M26.5509 23.789C24.9978 21.0632 22.5725 18.9392 19.6657 17.7591C21.1112 16.6749 22.179 15.1634 22.7178 13.4386C23.2566 11.7139 23.239 9.86329 22.6676 8.14906C22.0962 6.43483 20.9999 4.94384 19.534 3.88729C18.0681 2.83075 16.307 2.26221 14.5 2.26221C12.6931 2.26221 10.9319 2.83075 9.46604 3.88729C8.00016 4.94384 6.90387 6.43483 6.33246 8.14906C5.76105 9.86329 5.74349 11.7139 6.28226 13.4386C6.82104 15.1634 7.88884 16.6749 9.3344 17.7591C6.42752 18.9392 4.0023 21.0632 2.44917 23.789C2.35293 23.9438 2.28879 24.1163 2.26055 24.2963C2.23232 24.4764 2.24057 24.6602 2.28482 24.837C2.32907 25.0138 2.40841 25.1799 2.51812 25.3254C2.62783 25.4709 2.76568 25.5928 2.92347 25.684C3.08126 25.7752 3.25577 25.8337 3.43662 25.856C3.61747 25.8784 3.80097 25.8642 3.97622 25.8142C4.15147 25.7643 4.31488 25.6796 4.45674 25.5652C4.59861 25.4508 4.71603 25.3091 4.80202 25.1484C6.85468 21.6004 10.4797 19.4844 14.5 19.4844C18.5204 19.4844 22.1454 21.6016 24.198 25.1484C24.3844 25.4481 24.68 25.6635 25.0223 25.7492C25.3646 25.8349 25.7269 25.7841 26.0324 25.6076C26.338 25.431 26.5629 25.1426 26.6597 24.8032C26.7564 24.4639 26.7174 24.1002 26.5509 23.789ZM8.6094 10.875C8.6094 9.70992 8.95488 8.57103 9.60215 7.60232C10.2494 6.63362 11.1694 5.8786 12.2458 5.43275C13.3222 4.98691 14.5066 4.87025 15.6492 5.09754C16.7919 5.32483 17.8415 5.88586 18.6653 6.70968C19.4891 7.5335 20.0502 8.58311 20.2775 9.72578C20.5048 10.8684 20.3881 12.0529 19.9423 13.1292C19.4964 14.2056 18.7414 15.1256 17.7727 15.7729C16.804 16.4201 15.6651 16.7656 14.5 16.7656C12.9383 16.7638 11.441 16.1426 10.3367 15.0383C9.2324 13.934 8.6112 12.4367 8.6094 10.875Z" fill="#B7B7B7" stroke="#fff" stroke-width="0.5"/>
</svg>
