<svg width="20" height="20" viewBox="0 0 20 20" fill="none" xmlns="http://www.w3.org/2000/svg">
<path fill-rule="evenodd" clip-rule="evenodd" d="M4.16659 16.6665H15.8333C16.0543 16.6665 16.2662 16.7543 16.4225 16.9106C16.5788 17.0669 16.6666 17.2788 16.6666 17.4998C16.6666 17.7209 16.5788 17.9328 16.4225 18.0891C16.2662 18.2454 16.0543 18.3332 15.8333 18.3332H4.16659C3.94557 18.3332 3.73361 18.2454 3.57733 18.0891C3.42105 17.9328 3.33325 17.7209 3.33325 17.4998C3.33325 17.2788 3.42105 17.0669 3.57733 16.9106C3.73361 16.7543 3.94557 16.6665 4.16659 16.6665ZM3.33325 12.4998L11.6666 4.1665L14.1666 6.6665L5.83325 14.9998H3.33325V12.4998ZM12.4999 3.33317L14.1666 1.6665L16.6666 4.1665L14.9991 5.834L12.4999 3.33317Z" fill="white"/>
</svg>
