<svg width="24" height="24" viewBox="0 0 24 24" fill="none" xmlns="http://www.w3.org/2000/svg">
<path d="M7.00004 13.846C7.51338 13.846 7.94938 13.6667 8.30804 13.308C8.66671 12.9487 8.84604 12.5127 8.84604 12C8.84604 11.4874 8.66671 11.0514 8.30804 10.692C7.94871 10.3334 7.51271 10.154 7.00004 10.154C6.48738 10.154 6.05138 10.3334 5.69204 10.692C5.33338 11.0514 5.15404 11.4874 5.15404 12C5.15404 12.5127 5.33338 12.9487 5.69204 13.308C6.05138 13.6667 6.48738 13.846 7.00004 13.846ZM7.00004 16.731C5.66671 16.731 4.54504 16.2757 3.63504 15.365C2.72438 14.455 2.26904 13.3334 2.26904 12C2.26904 10.6667 2.72438 9.54504 3.63504 8.63504C4.54504 7.72438 5.66671 7.26904 7.00004 7.26904C8.13204 7.26904 9.11238 7.58838 9.94104 8.22704C10.7704 8.86571 11.3017 9.62338 11.535 10.5H20.583L22.077 11.994L19.597 14.629L17.769 13.25L15.942 14.692L14.385 13.5H11.535C11.2977 14.392 10.7617 15.1537 9.92704 15.785C9.09238 16.4157 8.11671 16.731 7.00004 16.731Z" fill="white"/>
</svg>
