<svg width="22" height="20" viewBox="0 0 22 20" fill="none" xmlns="http://www.w3.org/2000/svg">
<path d="M20.1 0.1H17.5C17.1552 0.1 16.8245 0.215893 16.5807 0.422183C16.3369 0.628473 16.2 0.908262 16.2 1.2V19.8912H21.4V1.2C21.4 0.908262 21.263 0.628473 21.0192 0.422183C20.7754 0.215893 20.4448 0.1 20.1 0.1ZM12.3 6.7H9.69998C9.35519 6.7 9.02453 6.81589 8.78074 7.02218C8.53694 7.22847 8.39998 7.50826 8.39998 7.8V19.8912H13.6V7.8C13.6 7.50826 13.463 7.22847 13.2192 7.02218C12.9754 6.81589 12.6448 6.7 12.3 6.7ZM4.49998 13.3H1.89998C1.55519 13.3 1.22453 13.4159 0.980737 13.6222C0.736939 13.8285 0.599976 14.1083 0.599976 14.4V19.8912H5.79998V14.4C5.79998 14.1083 5.66301 13.8285 5.41921 13.6222C5.17542 13.4159 4.84476 13.3 4.49998 13.3Z" fill="white"/>
</svg>
