<svg width="280" height="77" viewBox="0 0 280 77" fill="none" xmlns="http://www.w3.org/2000/svg">
<g clip-path="url(#clip0_904_398)">
<path d="M111.688 20.6271C111.688 9.46859 117.026 0 131.805 0C136.481 0 140.221 0.928799 142.649 1.8576L139.662 14.0223C137.974 13.3773 136.013 12.9129 134.234 12.9129C130.584 12.9129 128.338 14.8608 128.338 20.1627V22.6653H137.779V35.5782H128.338V76.8065H111.688V35.5782H104.584V23.3232L111.688 22.7556V20.6271ZM169.39 75.4262C167.701 76.1744 164.896 76.8194 161.156 76.8194C149.753 76.8194 146 69.389 146 58.3337V1.3029H162.649V58.9916C162.649 62.423 164.234 63.455 165.546 63.455C166.195 63.455 166.571 63.455 167.416 63.2744L169.39 75.4262Z" fill="#08306C"/>
<path d="M280 23.9553H262.143L228.013 76.8065H245.87L280 23.9553Z" fill="#60B883"/>
<path d="M280.001 23.9553H262.144L245.5 50L257.857 58L280.001 23.9553Z" fill="#08306C"/>
<path d="M220.208 23.9553H227.676L261.805 76.8065H254.338L220.208 23.9553Z" fill="white"/>
<path d="M226.701 23.9553H244.558L278.688 76.8065H260.831L226.701 23.9553Z" fill="#08306C"/>
<path d="M174.156 49.136C174.156 31.9533 186.493 21.3624 199.402 21.3624C214.74 21.3624 222.221 32.4177 222.221 46.9043C222.221 49.781 221.844 52.7609 221.467 53.9606H190.234C191.727 61.2104 196.779 64.1774 203.519 64.1774C207.351 64.1774 210.909 63.0551 214.74 60.8363L220.26 70.7693C214.74 74.678 207.454 76.8065 201.182 76.8065C185.935 76.8194 174.156 66.6026 174.156 49.136ZM208.104 43.1891C208.104 37.9001 205.766 33.9915 199.688 33.9915C195.104 33.9915 191.091 36.8681 189.961 43.1891H208.104Z" fill="#08306C"/>
<path d="M15.3118 75.3875V22.6782C15.3118 20.5755 15.8054 18.5889 16.7794 16.7313C17.9222 14.7834 20.156 13.8159 23.5067 13.8159H31.3378C34.6755 13.8159 36.8833 14.7834 37.9352 16.7313C38.4287 17.6214 38.8313 18.576 39.156 19.5822C39.4807 20.6013 39.6495 21.6333 39.6495 22.6782V75.3875H53.2209V22.6782C53.2209 20.4981 53.7534 18.5115 54.8054 16.7313C55.8573 14.7834 58.1041 13.8159 61.5326 13.8159H69.2339C71.1041 13.8159 72.5326 14.0352 73.5066 14.4867C74.4807 14.9382 75.2989 15.6864 75.9482 16.7313C75.9482 16.7313 76.9222 18.4728 77.169 19.5306C77.4157 20.5884 77.5326 21.6333 77.5326 22.6911V75.4004H91.2209V21.5817C91.2209 14.8608 88.9742 10.0104 84.4937 7.0047C80.169 3.9345 75.8573 2.38651 71.5326 2.38651H59.3118C57.2729 2.38651 55.13 2.7477 52.8963 3.483C50.6495 4.2054 48.5196 5.3406 46.4807 6.8886C44.3638 5.3535 42.156 4.2183 39.8833 3.483C37.5976 2.7477 35.5196 2.38651 33.6495 2.38651H21.2989C17.0651 2.38651 12.7015 3.9216 8.22094 7.0047C3.81834 10.0878 1.62354 14.9382 1.62354 21.5817V75.3875H15.3118Z" fill="#60B883"/>
<path d="M92.8701 77H75.9221V22.6782C75.9221 21.7494 75.8182 20.8077 75.5974 19.8789C75.4675 19.3113 74.8961 18.1503 74.5325 17.5053C74.0779 16.7829 73.5065 16.254 72.8312 15.9444C72.3117 15.7122 71.2597 15.4284 69.2338 15.4284H61.5325C58.7662 15.4284 56.987 16.125 56.2338 17.4924C55.2857 19.092 54.8441 20.769 54.8441 22.6782V77H38.026V22.6782C38.026 21.801 37.8831 20.9238 37.6104 20.0724C37.3117 19.1694 36.948 18.2922 36.5065 17.5053C36.2208 16.9893 35.3766 15.4284 31.3247 15.4284H23.5065C20.7662 15.4284 19.026 16.125 18.1818 17.544C17.3636 19.1049 16.9351 20.8464 16.9351 22.6782V77H0V21.5817C0 14.4222 2.45455 9.06869 7.28571 5.6889C12.039 2.4252 16.7403 0.774002 21.2987 0.774002H33.6493C35.6883 0.774002 37.948 1.1739 40.3766 1.9479C42.4545 2.6187 44.5065 3.612 46.4675 4.902C48.3636 3.5991 50.3506 2.6187 52.4026 1.9479C54.7922 1.1739 57.1169 0.774002 59.3247 0.774002H71.5454C76.1948 0.774002 80.8701 2.4252 85.4545 5.6889C90.3506 8.96549 92.8571 14.319 92.8571 21.5688V77H92.8701ZM79.1688 73.775H89.6104V21.5817C89.6104 15.3768 87.6493 11.0553 83.5974 8.34629C79.5325 5.4567 75.4935 4.0119 71.5454 4.0119H59.3247C57.4675 4.0119 55.4805 4.3473 53.4156 5.031C51.3636 5.7018 49.3636 6.75959 47.4675 8.17859L46.5195 8.90099L45.5454 8.19149C43.5714 6.75959 41.5065 5.6889 39.4026 5.0181C37.2857 4.3473 35.3636 3.999 33.6623 3.999H21.3117C17.4286 3.999 13.3377 5.4567 9.15584 8.33339C5.18182 11.1198 3.24675 15.4542 3.24675 21.5817V73.775H13.6883V22.6782C13.6883 20.3175 14.2468 18.0729 15.3377 15.9831C16.8182 13.4547 19.5584 12.2034 23.5065 12.2034H31.3377C35.2987 12.2034 38 13.4676 39.3636 15.9573C39.8961 16.9248 40.3506 17.9826 40.7013 19.092C41.0779 20.2659 41.2727 21.4785 41.2727 22.6782V73.775H51.5974V22.6782C51.5974 20.2143 52.2078 17.931 53.4156 15.9057C54.7403 13.4676 57.4935 12.2034 61.5325 12.2034H69.2338C71.3636 12.2034 72.987 12.4743 74.1948 13.0161C75.4675 13.5966 76.5195 14.5641 77.3506 15.8799C77.4935 16.1379 78.4805 17.9181 78.7792 19.1565C79.0519 20.3175 79.1818 21.5043 79.1818 22.6782V73.775H79.1688Z" fill="#60B883"/>
</g>
<defs>
<clipPath id="clip0_904_398">
<rect width="280" height="77" fill="white"/>
</clipPath>
</defs>
</svg>
